BilboINC.ufo
<glyph name="exclam" format="1">
  <advance width="213"/>
  <unicode hex="0021"/>
  <outline>
    <contour>
      <point x="71" y="160" type="line"/>
      <point x="71" y="716" type="line"/>
      <point x="144" y="716" type="line"/>
      <point x="144" y="160" type="line"/>
    </contour>
    <contour>
      <point x="107" y="3" type="line"/>
      <point x="50" y="59" type="line"/>
      <point x="107" y="115" type="line"/>
      <point x="163" y="59" type="line"/>
    </contour>
  </outline>
</glyph>
<glyph name="dollar" format="1">
  <advance width="308"/>
  <unicode hex="0024"/>
  <outline>
    <contour>
      <point x="186" y="749" type="line"/>
      <point x="186" y="687" type="line"/>
      <point x="209" y="682"/>
      <point x="240" y="661"/>
      <point x="250.0" y="647.5" type="qcurve" smooth="yes" name="inserted"/>
      <point x="260" y="634"/>
      <point x="268" y="604"/>
      <point x="268" y="591" type="qcurve" smooth="yes"/>
      <point x="268" y="453" type="line"/>
      <point x="197" y="453" type="line"/>
      <point x="197" y="582" type="line" smooth="yes"/>
      <point x="197" y="603"/>
      <point x="174" y="626"/>
      <point x="155" y="626" type="qcurve" smooth="yes"/>
      <point x="136" y="626"/>
      <point x="111" y="601"/>
      <point x="111" y="581" type="qcurve" smooth="yes"/>
      <point x="111" y="452" type="line"/>
      <point x="268" y="299" type="line"/>
      <point x="268" y="102" type="line" smooth="yes"/>
      <point x="268" y="91"/>
      <point x="257" y="61"/>
      <point x="246.5" y="46.5" type="qcurve" smooth="yes" name="inserted"/>
      <point x="236" y="32"/>
      <point x="206" y="6"/>
      <point x="186" y="0" type="qcurve"/>
      <point x="186" y="-55" type="line"/>
      <point x="122" y="-55" type="line"/>
      <point x="122" y="-1" type="line"/>
      <point x="80" y="8"/>
      <point x="41" y="69"/>
      <point x="41" y="102" type="qcurve" smooth="yes"/>
      <point x="41" y="277" type="line"/>
      <point x="111" y="277" type="line"/>
      <point x="111" y="211" type="line"/>
      <point x="112" y="113" type="line" smooth="yes"/>
      <point x="112" y="93"/>
      <point x="138" y="68"/>
      <point x="150" y="67" type="qcurve"/>
      <point x="153" y="67" type="line" smooth="yes"/>
      <point x="170" y="67"/>
      <point x="197" y="94"/>
      <point x="197" y="114" type="qcurve" smooth="yes"/>
      <point x="197" y="263" type="line"/>
      <point x="40" y="412" type="line"/>
      <point x="40" y="448" type="line" smooth="yes"/>
      <point x="40" y="468"/>
      <point x="41" y="537"/>
      <point x="41" y="591" type="qcurve" smooth="yes"/>
      <point x="41" y="604"/>
      <point x="50" y="633"/>
      <point x="60.0" y="646.5" type="qcurve" smooth="yes" name="inserted"/>
      <point x="70" y="660"/>
      <point x="101" y="681"/>
      <point x="122" y="686" type="qcurve"/>
      <point x="122" y="749" type="line"/>
    </contour>
  </outline>
</glyph>
<glyph name="ampersand" format="1">
  <advance width="470"/>
  <unicode hex="0026"/>
  <outline>
    <contour>
      <point x="56" y="421" type="line"/>
      <point x="56" y="556" type="line" smooth="yes"/>
      <point x="56" y="575"/>
      <point x="64" y="618"/>
      <point x="77.0" y="637.0" type="qcurve" smooth="yes" name="inserted"/>
      <point x="90" y="656"/>
      <point x="139" y="681"/>
      <point x="179" y="681" type="qcurve" smooth="yes"/>
      <point x="219" y="681"/>
      <point x="265" y="656"/>
      <point x="276.5" y="637.5" type="qcurve" smooth="yes" name="inserted"/>
      <point x="288" y="619"/>
      <point x="294" y="575"/>
      <point x="294" y="556" type="qcurve" smooth="yes"/>
      <point x="294" y="421" type="line"/>
      <point x="221" y="348" type="line"/>
      <point x="334" y="219" type="line"/>
      <point x="371" y="301" type="line"/>
      <point x="430" y="272" type="line"/>
      <point x="386" y="173" type="line"/>
      <point x="400.5" y="155.0" name="inserted"/>
      <point x="426.5" y="123.5"/>
      <point x="438" y="110" type="qcurve" smooth="yes"/>
      <point x="458" y="86"/>
      <point x="490" y="47"/>
      <point x="491" y="47" type="qcurve"/>
      <point x="441" y="0" type="line"/>
      <point x="350" y="108" type="line"/>
      <point x="337" y="87"/>
      <point x="308" y="49"/>
      <point x="290.0" y="34.0" type="qcurve" smooth="yes" name="inserted"/>
      <point x="272" y="19"/>
      <point x="226" y="1"/>
      <point x="198" y="1" type="qcurve" smooth="yes"/>
      <point x="127" y="1"/>
      <point x="55" y="65"/>
      <point x="55" y="116" type="qcurve" smooth="yes"/>
      <point x="55" y="273" type="line" smooth="yes"/>
      <point x="55" y="274"/>
      <point x="57" y="276"/>
      <point x="64.0" y="283.0" type="qcurve" smooth="yes" name="inserted"/>
      <point x="71" y="290"/>
      <point x="102" y="320"/>
      <point x="130" y="348" type="qcurve"/>
    </contour>
    <contour>
      <point x="126" y="247" type="qcurve"/>
      <point x="126" y="149" type="line" smooth="yes"/>
      <point x="126" y="126"/>
      <point x="132" y="96"/>
      <point x="140.0" y="86.5" type="qcurve" smooth="yes" name="inserted"/>
      <point x="148" y="77"/>
      <point x="176" y="69"/>
      <point x="198" y="69" type="qcurve" smooth="yes"/>
      <point x="221" y="69"/>
      <point x="258" y="98"/>
      <point x="272" y="116" type="qcurve" smooth="yes"/>
      <point x="280.0" y="126.5" name="inserted"/>
      <point x="294.0" y="150.5"/>
      <point x="300" y="164" type="qcurve"/>
      <point x="180" y="300" type="line"/>
      <point x="140" y="260" type="line" smooth="yes"/>
      <point x="136.0" y="256.0" name="inserted"/>
      <point x="129.0" y="249.5"/>
    </contour>
    <contour>
      <point x="178" y="393" type="line"/>
      <point x="221" y="443" type="line"/>
      <point x="221" y="552" type="line" smooth="yes"/>
      <point x="221" y="589"/>
      <point x="200" y="615"/>
      <point x="175" y="615" type="qcurve" smooth="yes"/>
      <point x="145" y="615"/>
      <point x="129" y="581"/>
      <point x="129" y="552" type="qcurve"/>
      <point x="128" y="443" type="line"/>
    </contour>
  </outline>
</glyph>
<glyph name="quotesingle" format="1">
  <advance width="170"/>
  <unicode hex="0027"/>
  <outline>
    <contour>
      <point x="69" y="557" type="line"/>
      <point x="18" y="575" type="line"/>
      <point x="79" y="763" type="line"/>
      <point x="149" y="741" type="line"/>
    </contour>
  </outline>
</glyph>
<glyph name="parenleft" format="1">
  <advance width="239"/>
  <unicode hex="0028"/>
  <outline>
    <contour>
      <point x="132" y="-17" type="line"/>
      <point x="115" y="34"/>
      <point x="92" y="123"/>
      <point x="84.5" y="166.5" type="qcurve" smooth="yes" name="inserted"/>
      <point x="77" y="210"/>
      <point x="69" y="298"/>
      <point x="68" y="348" type="qcurve" smooth="yes"/>
      <point x="69" y="399"/>
      <point x="77" y="490"/>
      <point x="84.0" y="533.5" type="qcurve" smooth="yes" name="inserted"/>
      <point x="91" y="577"/>
      <point x="114" y="664"/>
      <point x="132" y="710" type="qcurve"/>
      <point x="202" y="693" type="line"/>
      <point x="187" y="641"/>
      <point x="165" y="558"/>
      <point x="157.0" y="519.0" type="qcurve" smooth="yes" name="inserted"/>
      <point x="149" y="480"/>
      <point x="141" y="400"/>
      <point x="141" y="351" type="qcurve" smooth="yes"/>
      <point x="141" y="301"/>
      <point x="149" y="219"/>
      <point x="156.5" y="178.5" type="qcurve" smooth="yes" name="inserted"/>
      <point x="164" y="138"/>
      <point x="187" y="52"/>
      <point x="202" y="0" type="qcurve"/>
    </contour>
  </outline>
</glyph>
<glyph name="parenright" format="1">
  <advance width="205"/>
  <unicode hex="0029"/>
  <outline>
    <contour>
      <point x="34" y="0" type="line"/>
      <point x="49" y="52"/>
      <point x="72" y="138"/>
      <point x="79.5" y="178.5" type="qcurve" smooth="yes" name="inserted"/>
      <point x="87" y="219"/>
      <point x="95" y="301"/>
      <point x="95" y="351" type="qcurve" smooth="yes"/>
      <point x="95" y="400"/>
      <point x="87" y="480"/>
      <point x="79.0" y="519.0" type="qcurve" smooth="yes" name="inserted"/>
      <point x="71" y="558"/>
      <point x="49" y="641"/>
      <point x="34" y="693" type="qcurve"/>
      <point x="104" y="710" type="line"/>
      <point x="122" y="664"/>
      <point x="145" y="577"/>
      <point x="152.0" y="533.5" type="qcurve" smooth="yes" name="inserted"/>
      <point x="159" y="490"/>
      <point x="166" y="399"/>
      <point x="168" y="348" type="qcurve"/>
      <point x="166" y="298"/>
      <point x="159" y="210"/>
      <point x="151.5" y="166.5" type="qcurve" smooth="yes" name="inserted"/>
      <point x="144" y="123"/>
      <point x="121" y="34"/>
      <point x="104" y="-17" type="qcurve"/>
    </contour>
  </outline>
</glyph>
<glyph name="asterisk" format="1">
  <advance width="385"/>
  <unicode hex="002A"/>
  <outline>
    <contour>
      <point x="219" y="761" type="line"/>
      <point x="219" y="640" type="line"/>
      <point x="243" y="655"/>
      <point x="296" y="690"/>
      <point x="319" y="704" type="qcurve"/>
      <point x="350" y="655" type="line"/>
      <point x="244" y="595" type="line"/>
      <point x="350" y="537" type="line"/>
      <point x="319" y="487" type="line"/>
      <point x="219" y="548" type="line"/>
      <point x="223" y="431" type="line"/>
      <point x="162" y="431" type="line"/>
      <point x="166" y="551" type="line"/>
      <point x="67" y="488" type="line"/>
      <point x="35" y="537" type="line"/>
      <point x="137" y="595" type="line"/>
      <point x="36" y="648" type="line"/>
      <point x="63" y="701" type="line"/>
      <point x="166" y="641" type="line"/>
      <point x="162" y="761" type="line"/>
    </contour>
  </outline>
</glyph>
<glyph name="plus" format="1">
  <advance width="383"/>
  <unicode hex="002B"/>
  <outline>
    <contour>
      <point x="224" y="490" type="line"/>
      <point x="224" y="347" type="line"/>
      <point x="343" y="347" type="line"/>
      <point x="343" y="277" type="line"/>
      <point x="224" y="277" type="line"/>
      <point x="224" y="138" type="line"/>
      <point x="154" y="138" type="line"/>
      <point x="154" y="277" type="line"/>
      <point x="40" y="277" type="line"/>
      <point x="40" y="347" type="line"/>
      <point x="154" y="347" type="line"/>
      <point x="154" y="490" type="line"/>
    </contour>
  </outline>
</glyph>
<glyph name="comma" format="1">
  <advance width="151"/>
  <unicode hex="002C"/>
  <outline>
    <contour>
      <point x="61" y="-75" type="line"/>
      <point x="10" y="-57" type="line"/>
      <point x="71" y="131" type="line"/>
      <point x="141" y="109" type="line"/>
    </contour>
  </outline>
</glyph>
<glyph name="hyphen" format="1">
  <advance width="236"/>
  <unicode hex="002D"/>
  <outline>
    <contour>
      <point x="35" y="276" type="line"/>
      <point x="35" y="346" type="line"/>
      <point x="201" y="346" type="line"/>
      <point x="201" y="276" type="line"/>
    </contour>
  </outline>
</glyph>
<glyph name="period" format="1">
  <advance width="163"/>
  <unicode hex="002E"/>
  <outline>
    <contour>
      <point x="81" y="102" type="line"/>
      <point x="138" y="46" type="line"/>
      <point x="81" y="-10" type="line"/>
      <point x="25" y="46" type="line"/>
    </contour>
  </outline>
</glyph>
<glyph name="slash" format="1">
  <advance width="348"/>
  <unicode hex="002F"/>
  <outline>
    <contour>
      <point x="261" y="682" type="line"/>
      <point x="336" y="682" type="line"/>
      <point x="91" y="0" type="line"/>
      <point x="12" y="0" type="line"/>
    </contour>
  </outline>
</glyph>
<glyph name="zero" format="1">
  <advance width="330"/>
  <unicode hex="0030"/>
  <outline>
    <contour>
      <point x="283" y="560" type="qcurve" smooth="yes"/>
      <point x="283" y="126" type="line" smooth="yes"/>
      <point x="283" y="54"/>
      <point x="220" y="-6"/>
      <point x="166" y="-6" type="qcurve" smooth="yes"/>
      <point x="143" y="-6"/>
      <point x="101" y="8"/>
      <point x="84.0" y="24.0" type="qcurve" smooth="yes" name="inserted"/>
      <point x="67" y="40"/>
      <point x="47" y="90"/>
      <point x="47" y="126" type="qcurve" smooth="yes"/>
      <point x="47" y="560" type="line" smooth="yes"/>
      <point x="47" y="596"/>
      <point x="67" y="645"/>
      <point x="84.0" y="659.5" type="qcurve" smooth="yes" name="inserted"/>
      <point x="101" y="674"/>
      <point x="143" y="687"/>
      <point x="166" y="687" type="qcurve" smooth="yes"/>
      <point x="220" y="687"/>
      <point x="283" y="632"/>
    </contour>
    <contour>
      <point x="208" y="557" type="line" smooth="yes"/>
      <point x="208" y="592"/>
      <point x="187" y="619"/>
      <point x="166" y="619" type="qcurve" smooth="yes"/>
      <point x="145" y="619"/>
      <point x="122" y="592"/>
      <point x="122" y="557" type="qcurve" smooth="yes"/>
      <point x="122" y="124" type="line" smooth="yes"/>
      <point x="122" y="89"/>
      <point x="145" y="62"/>
      <point x="166" y="62" type="qcurve" smooth="yes"/>
      <point x="187" y="62"/>
      <point x="208" y="89"/>
      <point x="208" y="124" type="qcurve" smooth="yes"/>
    </contour>
  </outline>
</glyph>
<glyph name="one" format="1">
  <advance width="174"/>
  <unicode hex="0031"/>
  <outline>
    <contour>
      <point x="123" y="683" type="line"/>
      <point x="124" y="0" type="line"/>
      <point x="50" y="0" type="line"/>
      <point x="51" y="683" type="line"/>
    </contour>
  </outline>
</glyph>
<glyph name="two" format="1">
  <advance width="315"/>
  <unicode hex="0032"/>
  <outline>
    <contour>
      <point x="129" y="254" type="line"/>
      <point x="129" y="77" type="line"/>
      <point x="199" y="77" type="line"/>
      <point x="199" y="189" type="line"/>
      <point x="270" y="189" type="line"/>
      <point x="270" y="0" type="line"/>
      <point x="58" y="0" type="line"/>
      <point x="58" y="284" type="line"/>
      <point x="180" y="415" type="line"/>
      <point x="180" y="584" type="line" smooth="yes"/>
      <point x="180" y="599"/>
      <point x="169" y="623"/>
      <point x="150" y="623" type="qcurve" smooth="yes"/>
      <point x="131" y="623"/>
      <point x="117" y="600"/>
      <point x="117" y="584" type="qcurve" smooth="yes"/>
      <point x="117" y="478" type="line"/>
      <point x="45" y="478" type="line"/>
      <point x="45" y="592" type="line" smooth="yes"/>
      <point x="45" y="607"/>
      <point x="56" y="641"/>
      <point x="68.0" y="655.0" type="qcurve" smooth="yes" name="inserted"/>
      <point x="80" y="669"/>
      <point x="120" y="687"/>
      <point x="150" y="687" type="qcurve" smooth="yes"/>
      <point x="180" y="687"/>
      <point x="220" y="670"/>
      <point x="232.0" y="656.5" type="qcurve" smooth="yes" name="inserted"/>
      <point x="244" y="643"/>
      <point x="253" y="610"/>
      <point x="253" y="595" type="qcurve" smooth="yes"/>
      <point x="253" y="391" type="line"/>
    </contour>
  </outline>
</glyph>
<glyph name="three" format="1">
  <advance width="295"/>
  <unicode hex="0033"/>
  <outline>
    <contour>
      <point x="83" y="376" type="line"/>
      <point x="145" y="376" type="line"/>
      <point x="175" y="414" type="line"/>
      <point x="175.0" y="435.5" name="inserted"/>
      <point x="175.5" y="475.0"/>
      <point x="176" y="493" type="qcurve" smooth="yes"/>
      <point x="176" y="524"/>
      <point x="177" y="580"/>
      <point x="177" y="588" type="qcurve" smooth="yes"/>
      <point x="177" y="603"/>
      <point x="161" y="627"/>
      <point x="142" y="627" type="qcurve" smooth="yes"/>
      <point x="123" y="627"/>
      <point x="109" y="604"/>
      <point x="109" y="588" type="qcurve" smooth="yes"/>
      <point x="109" y="474" type="line"/>
      <point x="40" y="474" type="line"/>
      <point x="40" y="603" type="line" smooth="yes"/>
      <point x="40" y="618"/>
      <point x="51" y="650"/>
      <point x="63.0" y="662.5" type="qcurve" smooth="yes" name="inserted"/>
      <point x="75" y="675"/>
      <point x="114" y="691"/>
      <point x="142" y="691" type="qcurve" smooth="yes"/>
      <point x="172" y="691"/>
      <point x="212" y="675"/>
      <point x="224.0" y="662.5" type="qcurve" smooth="yes" name="inserted"/>
      <point x="236" y="650"/>
      <point x="246" y="618"/>
      <point x="246" y="603" type="qcurve" smooth="yes"/>
      <point x="246" y="391" type="line"/>
      <point x="208" y="343" type="line"/>
      <point x="246" y="296" type="line"/>
      <point x="246" y="88" type="line" smooth="yes"/>
      <point x="246" y="73"/>
      <point x="236" y="39"/>
      <point x="223.5" y="24.5" type="qcurve" smooth="yes" name="inserted"/>
      <point x="211" y="10"/>
      <point x="170" y="-8"/>
      <point x="140" y="-8" type="qcurve" smooth="yes"/>
      <point x="111" y="-8"/>
      <point x="73" y="10"/>
      <point x="61.5" y="24.5" type="qcurve" smooth="yes" name="inserted"/>
      <point x="50" y="39"/>
      <point x="40" y="73"/>
      <point x="40" y="88" type="qcurve" smooth="yes"/>
      <point x="40" y="213" type="line"/>
      <point x="107" y="213" type="line"/>
      <point x="107" y="95" type="line" smooth="yes"/>
      <point x="107" y="79"/>
      <point x="121" y="56"/>
      <point x="140" y="56" type="qcurve" smooth="yes"/>
      <point x="159" y="56"/>
      <point x="175" y="80"/>
      <point x="175" y="95" type="qcurve" smooth="yes"/>
      <point x="175" y="103"/>
      <point x="174" y="159"/>
      <point x="174" y="191" type="qcurve" smooth="yes"/>
      <point x="174" y="272" type="line"/>
      <point x="147" y="303" type="line"/>
      <point x="83" y="303" type="line"/>
    </contour>
  </outline>
</glyph>
<glyph name="four" format="1">
  <advance width="318"/>
  <unicode hex="0034"/>
  <outline>
    <contour>
      <point x="242" y="686" type="line"/>
      <point x="242" y="211" type="line"/>
      <point x="288" y="211" type="line"/>
      <point x="288" y="142" type="line"/>
      <point x="242" y="142" type="line"/>
      <point x="242" y="0" type="line"/>
      <point x="170" y="0" type="line"/>
      <point x="170" y="142" type="line"/>
      <point x="36" y="142" type="line"/>
      <point x="17" y="194" type="line"/>
      <point x="170" y="686" type="line"/>
    </contour>
    <contour>
      <point x="170" y="211" type="line"/>
      <point x="170" y="480" type="line"/>
      <point x="94" y="211" type="line"/>
    </contour>
  </outline>
</glyph>
<glyph name="five" format="1">
  <advance width="291"/>
  <unicode hex="0035"/>
  <outline>
    <contour>
      <point x="182" y="614" type="line"/>
      <point x="117" y="614" type="line"/>
      <point x="117" y="362" type="line"/>
      <point x="157" y="341"/>
      <point x="209" y="314"/>
      <point x="223.5" y="306.0" type="qcurve" smooth="yes" name="inserted"/>
      <point x="238" y="298"/>
      <point x="249" y="292"/>
      <point x="249" y="292" type="qcurve"/>
      <point x="249" y="91" type="line" smooth="yes"/>
      <point x="249" y="63"/>
      <point x="232" y="25"/>
      <point x="218.0" y="13.5" type="qcurve" smooth="yes" name="inserted"/>
      <point x="204" y="2"/>
      <point x="168" y="-8"/>
      <point x="148" y="-8" type="qcurve" smooth="yes"/>
      <point x="128" y="-8"/>
      <point x="92" y="2"/>
      <point x="78.0" y="14.5" type="qcurve" smooth="yes" name="inserted"/>
      <point x="64" y="27"/>
      <point x="48" y="69"/>
      <point x="48" y="101" type="qcurve" smooth="yes"/>
      <point x="48" y="196" type="line"/>
      <point x="117" y="196" type="line"/>
      <point x="117" y="95" type="line" smooth="yes"/>
      <point x="117" y="81"/>
      <point x="133" y="60"/>
      <point x="148" y="60" type="qcurve" smooth="yes"/>
      <point x="159" y="60"/>
      <point x="183" y="75"/>
      <point x="183" y="95" type="qcurve" smooth="yes"/>
      <point x="183" y="249" type="line"/>
      <point x="48" y="319" type="line"/>
      <point x="48" y="681" type="line"/>
      <point x="249" y="681" type="line"/>
      <point x="249" y="447" type="line"/>
      <point x="182" y="447" type="line"/>
    </contour>
  </outline>
</glyph>
<glyph name="six" format="1">
  <advance width="313"/>
  <unicode hex="0036"/>
  <outline>
    <contour>
      <point x="195" y="449" type="line"/>
      <point x="195" y="560" type="line" smooth="yes"/>
      <point x="195" y="592"/>
      <point x="182" y="619"/>
      <point x="161" y="619" type="qcurve" smooth="yes"/>
      <point x="142" y="619"/>
      <point x="124" y="595"/>
      <point x="124" y="565" type="qcurve" smooth="yes"/>
      <point x="124" y="362" type="line"/>
      <point x="164" y="341"/>
      <point x="219" y="314"/>
      <point x="236.0" y="306.0" type="qcurve" smooth="yes" name="inserted"/>
      <point x="253" y="298"/>
      <point x="268" y="292"/>
      <point x="268" y="292" type="qcurve"/>
      <point x="268" y="98" type="line" smooth="yes"/>
      <point x="268" y="64"/>
      <point x="244" y="22"/>
      <point x="227.5" y="11.0" type="qcurve" smooth="yes" name="inserted"/>
      <point x="211" y="0"/>
      <point x="174" y="-8"/>
      <point x="161" y="-8" type="qcurve" smooth="yes"/>
      <point x="146" y="-8"/>
      <point x="107" y="3"/>
      <point x="90.0" y="15.0" type="qcurve" smooth="yes" name="inserted"/>
      <point x="73" y="27"/>
      <point x="50" y="68"/>
      <point x="50" y="98" type="qcurve" smooth="yes"/>
      <point x="50" y="587" type="line" smooth="yes"/>
      <point x="50" y="619"/>
      <point x="73" y="659"/>
      <point x="90.0" y="669.5" type="qcurve" smooth="yes" name="inserted"/>
      <point x="107" y="680"/>
      <point x="146" y="687"/>
      <point x="161" y="687" type="qcurve" smooth="yes"/>
      <point x="174" y="687"/>
      <point x="211" y="681"/>
      <point x="227.5" y="670.5" type="qcurve" smooth="yes" name="inserted"/>
      <point x="244" y="660"/>
      <point x="268" y="620"/>
      <point x="268" y="587" type="qcurve" smooth="yes"/>
      <point x="268" y="449" type="line"/>
    </contour>
    <contour>
      <point x="124" y="283" type="line"/>
      <point x="124" y="116" type="line" smooth="yes"/>
      <point x="124.0" y="88.0" name="inserted"/>
      <point x="142.5" y="60.0"/>
      <point x="161" y="60" type="qcurve" smooth="yes"/>
      <point x="180" y="60"/>
      <point x="195" y="93"/>
      <point x="195" y="116" type="qcurve" smooth="yes"/>
      <point x="195" y="249" type="line"/>
    </contour>
  </outline>
</glyph>
<glyph name="seven" format="1">
  <advance width="297"/>
  <unicode hex="0037"/>
  <outline>
    <contour>
      <point x="91" y="0" type="line"/>
      <point x="136" y="233" type="line"/>
      <point x="40" y="233" type="line"/>
      <point x="40" y="299" type="line"/>
      <point x="149" y="299" type="line"/>
      <point x="180" y="454" type="line"/>
      <point x="180" y="611" type="line"/>
      <point x="107" y="611" type="line"/>
      <point x="107" y="453" type="line"/>
      <point x="40" y="453" type="line"/>
      <point x="40" y="682" type="line"/>
      <point x="251" y="682" type="line"/>
      <point x="251" y="446" type="line"/>
      <point x="221" y="299" type="line"/>
      <point x="268" y="299" type="line"/>
      <point x="268" y="233" type="line"/>
      <point x="208" y="233" type="line"/>
      <point x="161" y="0" type="line"/>
    </contour>
  </outline>
</glyph>
<glyph name="eight" format="1">
  <advance width="307"/>
  <unicode hex="0038"/>
  <outline>
    <contour>
      <point x="49" y="603" type="line" smooth="yes"/>
      <point x="49" y="618"/>
      <point x="60" y="650"/>
      <point x="72.0" y="662.5" type="qcurve" smooth="yes" name="inserted"/>
      <point x="84" y="675"/>
      <point x="124" y="691"/>
      <point x="154" y="691" type="qcurve" smooth="yes"/>
      <point x="184" y="691"/>
      <point x="225" y="675"/>
      <point x="237.5" y="662.5" type="qcurve" smooth="yes" name="inserted"/>
      <point x="250" y="650"/>
      <point x="260" y="618"/>
      <point x="260" y="603" type="qcurve" smooth="yes"/>
      <point x="260" y="391" type="line"/>
      <point x="220" y="345" type="line"/>
      <point x="258" y="296" type="line"/>
      <point x="258" y="88" type="line" smooth="yes"/>
      <point x="258" y="73"/>
      <point x="248" y="39"/>
      <point x="236.0" y="24.5" type="qcurve" smooth="yes" name="inserted"/>
      <point x="224" y="10"/>
      <point x="184" y="-8"/>
      <point x="154" y="-8" type="qcurve" smooth="yes"/>
      <point x="122" y="-8"/>
      <point x="81" y="11"/>
      <point x="69.0" y="25.0" type="qcurve" smooth="yes" name="inserted"/>
      <point x="57" y="39"/>
      <point x="47" y="73"/>
      <point x="47" y="88" type="qcurve" smooth="yes"/>
      <point x="47" y="297" type="line"/>
      <point x="89" y="345" type="line"/>
      <point x="49" y="391" type="line"/>
    </contour>
    <contour>
      <point x="119" y="95" type="line" smooth="yes"/>
      <point x="119" y="79"/>
      <point x="133" y="56"/>
      <point x="152" y="56" type="qcurve" smooth="yes"/>
      <point x="171" y="56"/>
      <point x="187" y="80"/>
      <point x="187" y="95" type="qcurve" smooth="yes"/>
      <point x="187" y="103"/>
      <point x="186" y="158"/>
      <point x="186" y="190" type="qcurve" smooth="yes"/>
      <point x="186" y="271" type="line"/>
      <point x="154" y="311" type="line"/>
      <point x="119" y="271" type="line"/>
    </contour>
    <contour>
      <point x="188" y="415" type="line"/>
      <point x="188" y="494" type="line" smooth="yes"/>
      <point x="188" y="525"/>
      <point x="189" y="580"/>
      <point x="189" y="588" type="qcurve" smooth="yes"/>
      <point x="189" y="603"/>
      <point x="173" y="627"/>
      <point x="154" y="627" type="qcurve" smooth="yes"/>
      <point x="135" y="627"/>
      <point x="121" y="604"/>
      <point x="121" y="588" type="qcurve" smooth="yes"/>
      <point x="121" y="415" type="line"/>
      <point x="154" y="376" type="line"/>
    </contour>
  </outline>
</glyph>
<glyph name="nine" format="1">
  <advance width="288"/>
  <unicode hex="0039"/>
  <outline>
    <contour>
      <point x="103" y="195" type="line"/>
      <point x="103" y="116" type="line" smooth="yes"/>
      <point x="103" y="91"/>
      <point x="119" y="58"/>
      <point x="142" y="58" type="qcurve" smooth="yes"/>
      <point x="160.5" y="58.0" name="inserted"/>
      <point x="179.0" y="87.0"/>
      <point x="179" y="116" type="qcurve" smooth="yes"/>
      <point x="179" y="317" type="line"/>
      <point x="138" y="338"/>
      <point x="84" y="365"/>
      <point x="67.0" y="373.0" type="qcurve" smooth="yes" name="inserted"/>
      <point x="50" y="381"/>
      <point x="35" y="387"/>
      <point x="35" y="387" type="qcurve"/>
      <point x="35" y="582" type="line" smooth="yes"/>
      <point x="35" y="616"/>
      <point x="59" y="659"/>
      <point x="75.5" y="671.0" type="qcurve" smooth="yes" name="inserted"/>
      <point x="92" y="683"/>
      <point x="129" y="691"/>
      <point x="142" y="691" type="qcurve" smooth="yes"/>
      <point x="157" y="691"/>
      <point x="194" y="683"/>
      <point x="210.0" y="671.5" type="qcurve" smooth="yes" name="inserted"/>
      <point x="226" y="660"/>
      <point x="247" y="617"/>
      <point x="247" y="582" type="qcurve" smooth="yes"/>
      <point x="247" y="101" type="line" smooth="yes"/>
      <point x="247" y="72"/>
      <point x="228" y="30"/>
      <point x="212.5" y="17.0" type="qcurve" smooth="yes" name="inserted"/>
      <point x="197" y="4"/>
      <point x="160" y="-8"/>
      <point x="142" y="-8" type="qcurve" smooth="yes"/>
      <point x="123" y="-8"/>
      <point x="85" y="3"/>
      <point x="69.5" y="15.5" type="qcurve" smooth="yes" name="inserted"/>
      <point x="54" y="28"/>
      <point x="35" y="70"/>
      <point x="35" y="101" type="qcurve" smooth="yes"/>
      <point x="35" y="195" type="line"/>
    </contour>
    <contour>
      <point x="107" y="430" type="line"/>
      <point x="178" y="395" type="line"/>
      <point x="178" y="565" type="line" smooth="yes"/>
      <point x="178" y="600"/>
      <point x="161" y="623"/>
      <point x="142" y="623" type="qcurve" smooth="yes"/>
      <point x="129" y="623"/>
      <point x="115" y="612"/>
      <point x="111.5" y="603.5" type="qcurve" smooth="yes" name="inserted"/>
      <point x="108" y="595"/>
      <point x="107" y="575"/>
      <point x="107" y="565" type="qcurve" smooth="yes"/>
    </contour>
  </outline>
</glyph>
<glyph name="colon" format="1">
  <advance width="164"/>
  <unicode hex="003A"/>
  <outline>
    <contour>
      <point x="82" y="221" type="line"/>
      <point x="139" y="165" type="line"/>
      <point x="82" y="109" type="line"/>
      <point x="26" y="165" type="line"/>
    </contour>
    <contour>
      <point x="82" y="445" type="line"/>
      <point x="139" y="389" type="line"/>
      <point x="82" y="333" type="line"/>
      <point x="26" y="389" type="line"/>
    </contour>
  </outline>
</glyph>
<glyph name="semicolon" format="1">
  <advance width="307"/>
  <unicode hex="003B"/>
  <outline>
    <contour>
      <point x="160" y="445" type="line"/>
      <point x="217" y="389" type="line"/>
      <point x="160" y="333" type="line"/>
      <point x="104" y="389" type="line"/>
    </contour>
    <contour>
      <point x="120" y="-75" type="line"/>
      <point x="69" y="-57" type="line"/>
      <point x="130" y="131" type="line"/>
      <point x="200" y="109" type="line"/>
    </contour>
  </outline>
</glyph>
<glyph name="less" format="1">
  <advance width="415"/>
  <unicode hex="003C"/>
  <outline>
    <contour>
      <point x="41" y="343" type="line"/>
      <point x="357" y="519" type="line"/>
      <point x="391" y="457" type="line"/>
      <point x="132" y="311" type="line"/>
      <point x="391" y="163" type="line"/>
      <point x="360" y="102" type="line"/>
      <point x="41" y="279" type="line"/>
    </contour>
  </outline>
</glyph>
<glyph name="equal" format="1">
  <advance width="425"/>
  <unicode hex="003D"/>
  <outline>
    <contour>
      <point x="62" y="276" type="line"/>
      <point x="366" y="276" type="line"/>
      <point x="366" y="206" type="line"/>
      <point x="62" y="206" type="line"/>
    </contour>
    <contour>
      <point x="62" y="415" type="line"/>
      <point x="366" y="415" type="line"/>
      <point x="366" y="345" type="line"/>
      <point x="62" y="345" type="line"/>
    </contour>
  </outline>
</glyph>
<glyph name="greater" format="1">
  <advance width="415"/>
  <unicode hex="003E"/>
  <outline>
    <contour>
      <point x="374" y="279" type="line"/>
      <point x="55" y="102" type="line"/>
      <point x="24" y="163" type="line"/>
      <point x="283" y="311" type="line"/>
      <point x="24" y="457" type="line"/>
      <point x="58" y="519" type="line"/>
      <point x="374" y="343" type="line"/>
    </contour>
  </outline>
</glyph>
<glyph name="question" format="1">
  <advance width="320"/>
  <unicode hex="003F"/>
  <outline>
    <contour>
      <point x="171" y="688" type="qcurve" smooth="yes"/>
      <point x="225" y="688"/>
      <point x="280" y="645"/>
      <point x="280" y="595" type="qcurve"/>
      <point x="279" y="380" type="line"/>
      <point x="187" y="290" type="line"/>
      <point x="187" y="167" type="line"/>
      <point x="111" y="167" type="line"/>
      <point x="111" y="317" type="line"/>
      <point x="202" y="405" type="line"/>
      <point x="202" y="572" type="line" smooth="yes"/>
      <point x="202" y="591"/>
      <point x="198" y="611"/>
      <point x="193.0" y="615.5" type="qcurve" smooth="yes" name="inserted"/>
      <point x="188" y="620"/>
      <point x="172" y="622"/>
      <point x="160" y="622" type="qcurve" smooth="yes"/>
      <point x="145" y="622"/>
      <point x="127" y="618"/>
      <point x="123.0" y="612.0" type="qcurve" smooth="yes" name="inserted"/>
      <point x="119" y="606"/>
      <point x="117" y="586"/>
      <point x="117" y="571" type="qcurve" smooth="yes"/>
      <point x="117" y="516" type="line"/>
      <point x="40" y="516" type="line"/>
      <point x="40" y="586" type="line" smooth="yes"/>
      <point x="40" y="613"/>
      <point x="49" y="652"/>
      <point x="63.0" y="664.5" type="qcurve" smooth="yes" name="inserted"/>
      <point x="77" y="677"/>
      <point x="129" y="688"/>
    </contour>
    <contour>
      <point x="150" y="110" type="line"/>
      <point x="207" y="54" type="line"/>
      <point x="150" y="-2" type="line"/>
      <point x="94" y="54" type="line"/>
    </contour>
  </outline>
</glyph>
<glyph name="at" format="1">
  <advance width="583"/>
  <unicode hex="0040"/>
  <outline>
    <contour>
      <point x="117" y="60" type="line"/>
      <point x="121" y="60"/>
      <point x="170" y="60"/>
      <point x="197.5" y="60.0" type="qcurve" smooth="yes" name="inserted"/>
      <point x="225" y="60"/>
      <point x="269" y="60"/>
      <point x="269" y="60" type="qcurve"/>
      <point x="269" y="-18" type="line"/>
      <point x="147" y="-18" type="line" smooth="yes"/>
      <point x="126" y="-18"/>
      <point x="90" y="-16"/>
      <point x="76.5" y="-10.0" type="qcurve" smooth="yes" name="inserted"/>
      <point x="63" y="-4"/>
      <point x="48" y="20"/>
      <point x="48" y="43" type="qcurve" smooth="yes"/>
      <point x="48" y="66"/>
      <point x="48" y="159"/>
      <point x="48.5" y="216.0" type="qcurve" smooth="yes" name="inserted"/>
      <point x="49" y="273"/>
      <point x="49" y="397"/>
      <point x="49.5" y="452.0" type="qcurve" smooth="yes" name="inserted"/>
      <point x="50" y="507"/>
      <point x="50" y="590"/>
      <point x="50" y="605" type="qcurve" smooth="yes"/>
      <point x="50" y="654"/>
      <point x="97" y="701"/>
      <point x="140" y="701" type="qcurve" smooth="yes"/>
      <point x="468" y="701" type="line" smooth="yes"/>
      <point x="496" y="701"/>
      <point x="527" y="692"/>
      <point x="534.0" y="681.5" type="qcurve" smooth="yes" name="inserted"/>
      <point x="541" y="671"/>
      <point x="543" y="637"/>
      <point x="543" y="613" type="qcurve" smooth="yes"/>
      <point x="543" y="161" type="line" smooth="yes"/>
      <point x="543" y="137"/>
      <point x="526" y="100"/>
      <point x="514.0" y="87.5" type="qcurve" smooth="yes" name="inserted"/>
      <point x="502" y="75"/>
      <point x="474" y="63"/>
      <point x="463" y="63" type="qcurve" smooth="yes"/>
      <point x="413" y="63" type="line" smooth="yes"/>
      <point x="394" y="63"/>
      <point x="368" y="77"/>
      <point x="360.0" y="87.0" type="qcurve" smooth="yes" name="inserted"/>
      <point x="352" y="97"/>
      <point x="345" y="120"/>
      <point x="345" y="128" type="qcurve" smooth="yes"/>
      <point x="345" y="237" type="line"/>
      <point x="244" y="120" type="line"/>
      <point x="176" y="120" type="line"/>
      <point x="176" y="458" type="line" smooth="yes"/>
      <point x="176" y="479"/>
      <point x="178" y="516"/>
      <point x="185.0" y="529.5" type="qcurve" smooth="yes" name="inserted"/>
      <point x="192" y="543"/>
      <point x="222" y="559"/>
      <point x="250" y="559" type="qcurve" smooth="yes"/>
      <point x="415" y="559" type="line"/>
      <point x="415" y="135" type="line"/>
      <point x="427" y="134"/>
      <point x="448" y="135"/>
      <point x="456.0" y="138.5" type="qcurve" smooth="yes" name="inserted"/>
      <point x="464" y="142"/>
      <point x="474" y="159"/>
      <point x="474" y="174" type="qcurve" smooth="yes"/>
      <point x="474" y="628" type="line"/>
      <point x="170" y="628" type="line" smooth="yes"/>
      <point x="137" y="628"/>
      <point x="118" y="608"/>
      <point x="118" y="583" type="qcurve"/>
    </contour>
    <contour>
      <point x="345" y="491" type="line"/>
      <point x="244" y="491" type="line"/>
      <point x="244" y="216" type="line"/>
      <point x="345" y="336" type="line"/>
    </contour>
  </outline>
</glyph>
<glyph name="A" format="1">
  <advance width="318"/>
  <unicode hex="0041"/>
  <outline>
    <contour>
      <point x="214" y="140" type="line"/>
      <point x="158" y="84" type="line"/>
      <point x="101" y="140" type="line"/>
      <point x="84" y="0" type="line"/>
      <point x="15" y="0" type="line"/>
      <point x="90" y="613" type="line"/>
      <point x="39" y="613" type="line"/>
      <point x="39" y="681" type="line"/>
      <point x="276" y="681" type="line"/>
      <point x="276" y="613" type="line"/>
      <point x="225" y="613" type="line"/>
      <point x="303" y="0" type="line"/>
      <point x="231" y="0" type="line"/>
    </contour>
    <contour>
      <point x="112" y="221" type="line"/>
      <point x="158" y="176" type="line"/>
      <point x="204" y="221" type="line"/>
      <point x="158" y="596" type="line"/>
    </contour>
  </outline>
</glyph>
<glyph name="B" format="1">
  <advance width="320"/>
  <unicode hex="0042"/>
  <outline>
    <contour>
      <point x="50" y="0" type="line"/>
      <point x="50" y="681" type="line"/>
      <point x="160" y="681" type="line" smooth="yes"/>
      <point x="184" y="681"/>
      <point x="229" y="671"/>
      <point x="246.0" y="657.5" type="qcurve" smooth="yes" name="inserted"/>
      <point x="263" y="644"/>
      <point x="284" y="598"/>
      <point x="284" y="561" type="qcurve" smooth="yes"/>
      <point x="284" y="421" type="line"/>
      <point x="210" y="348" type="line"/>
      <point x="284" y="272" type="line"/>
      <point x="284" y="129" type="line" smooth="yes"/>
      <point x="284" y="77"/>
      <point x="254" y="24"/>
      <point x="233.0" y="12.5" type="qcurve" smooth="yes" name="inserted"/>
      <point x="212" y="1"/>
      <point x="168" y="0"/>
      <point x="153" y="0" type="qcurve" smooth="yes"/>
    </contour>
    <contour>
      <point x="120" y="349" type="line"/>
      <point x="214" y="443" type="line"/>
      <point x="214" y="548" type="line" smooth="yes"/>
      <point x="214" y="569"/>
      <point x="206" y="595"/>
      <point x="199.0" y="601.5" type="qcurve" smooth="yes" name="inserted"/>
      <point x="192" y="608"/>
      <point x="173" y="613"/>
      <point x="163" y="613" type="qcurve" smooth="yes"/>
      <point x="120" y="613" type="line"/>
    </contour>
    <contour>
      <point x="120" y="68" type="line"/>
      <point x="167" y="68" type="line" smooth="yes"/>
      <point x="171" y="68"/>
      <point x="187" y="72"/>
      <point x="194.5" y="78.5" type="qcurve" smooth="yes" name="inserted"/>
      <point x="202" y="85"/>
      <point x="214" y="110"/>
      <point x="214" y="131" type="qcurve" smooth="yes"/>
      <point x="214" y="252" type="line"/>
      <point x="165" y="301" type="line"/>
      <point x="120" y="257" type="line"/>
    </contour>
  </outline>
</glyph>
<glyph name="E" format="1">
  <advance width="278"/>
  <unicode hex="0045"/>
  <outline>
    <contour>
      <point x="263" y="613" type="line"/>
      <point x="114" y="613" type="line"/>
      <point x="114" y="346" type="line"/>
      <point x="183" y="414" type="line"/>
      <point x="231" y="365" type="line"/>
      <point x="114" y="249" type="line"/>
      <point x="114" y="68" type="line"/>
      <point x="263" y="68" type="line"/>
      <point x="263" y="0" type="line"/>
      <point x="45" y="0" type="line"/>
      <point x="45" y="680" type="line"/>
      <point x="263" y="680" type="line"/>
    </contour>
  </outline>
</glyph>
<glyph name="F" format="1">
  <advance width="283"/>
  <unicode hex="0046"/>
  <outline>
    <contour>
      <point x="119" y="346" type="line"/>
      <point x="188" y="414" type="line"/>
      <point x="236" y="365" type="line"/>
      <point x="119" y="249" type="line"/>
      <point x="119" y="0" type="line"/>
      <point x="50" y="0" type="line"/>
      <point x="50" y="681" type="line"/>
      <point x="268" y="681" type="line"/>
      <point x="268" y="613" type="line"/>
      <point x="119" y="613" type="line"/>
    </contour>
  </outline>
</glyph>
<glyph name="G" format="1">
  <advance width="322"/>
  <unicode hex="0047"/>
  <outline>
    <contour>
      <point x="119" y="613" type="line"/>
      <point x="119" y="89" type="line"/>
      <point x="220" y="191" type="line"/>
      <point x="220" y="291" type="line"/>
      <point x="170" y="291" type="line"/>
      <point x="170" y="359" type="line"/>
      <point x="287" y="359" type="line"/>
      <point x="287" y="0" type="line"/>
      <point x="220" y="0" type="line"/>
      <point x="220" y="100" type="line"/>
      <point x="119" y="0" type="line"/>
      <point x="50" y="0" type="line"/>
      <point x="51" y="580" type="line" smooth="yes"/>
      <point x="51" y="602"/>
      <point x="53" y="639"/>
      <point x="60.0" y="652.5" type="qcurve" smooth="yes" name="inserted"/>
      <point x="67" y="666"/>
      <point x="98" y="681"/>
      <point x="126" y="681" type="qcurve" smooth="yes"/>
      <point x="283" y="681" type="line"/>
      <point x="283" y="538" type="line"/>
      <point x="215" y="538" type="line"/>
      <point x="215" y="613" type="line"/>
    </contour>
  </outline>
</glyph>
<glyph name="H" format="1">
  <advance width="358"/>
  <unicode hex="0048"/>
  <outline>
    <contour>
      <point x="308" y="681" type="line"/>
      <point x="308" y="0" type="line"/>
      <point x="238" y="0" type="line"/>
      <point x="238" y="354" type="line"/>
      <point x="181" y="294" type="line"/>
      <point x="120" y="354" type="line"/>
      <point x="120" y="0" type="line"/>
      <point x="50" y="0" type="line"/>
      <point x="50" y="681" type="line"/>
      <point x="120" y="681" type="line"/>
      <point x="120" y="446" type="line"/>
      <point x="181" y="386" type="line"/>
      <point x="238" y="446" type="line"/>
      <point x="238" y="681" type="line"/>
    </contour>
  </outline>
</glyph>
<glyph name="I" format="1">
  <advance width="203"/>
  <unicode hex="0049"/>
  <outline>
    <contour>
      <point x="135" y="681" type="line"/>
      <point x="135" y="0" type="line"/>
      <point x="64" y="0" type="line"/>
      <point x="64" y="609" type="line"/>
    </contour>
    <contour>
      <point x="101" y="830" type="line"/>
      <point x="158" y="774" type="line"/>
      <point x="101" y="718" type="line"/>
      <point x="45" y="774" type="line"/>
    </contour>
  </outline>
</glyph>
<glyph name="K" format="1">
  <advance width="331"/>
  <unicode hex="004B"/>
  <outline>
    <contour>
      <point x="120" y="680" type="line"/>
      <point x="120" y="344" type="line"/>
      <point x="215" y="439" type="line"/>
      <point x="215" y="680" type="line"/>
      <point x="287" y="680" type="line"/>
      <point x="287" y="416" type="line"/>
      <point x="204" y="332" type="line"/>
      <point x="285" y="251" type="line"/>
      <point x="285" y="0" type="line"/>
      <point x="215" y="0" type="line"/>
      <point x="215" y="229" type="line"/>
      <point x="156" y="288" type="line"/>
      <point x="119" y="249" type="line"/>
      <point x="119" y="0" type="line"/>
      <point x="51" y="0" type="line"/>
      <point x="50" y="680" type="line"/>
    </contour>
  </outline>
</glyph>
<glyph name="L" format="1">
  <advance width="254"/>
  <unicode hex="004C"/>
  <outline>
    <contour>
      <point x="120" y="681" type="line"/>
      <point x="120" y="68" type="line"/>
      <point x="252" y="68" type="line"/>
      <point x="252" y="0" type="line"/>
      <point x="50" y="0" type="line"/>
      <point x="50" y="681" type="line"/>
    </contour>
  </outline>
</glyph>
<glyph name="M" format="1">
  <advance width="509"/>
  <unicode hex="004D"/>
  <outline>
    <contour>
      <point x="213" y="589" type="line"/>
      <point x="122" y="493" type="line"/>
      <point x="122" y="0" type="line"/>
      <point x="50" y="0" type="line"/>
      <point x="52" y="681" type="line"/>
      <point x="122" y="681" type="line"/>
      <point x="122" y="588" type="line"/>
      <point x="213" y="681" type="line"/>
      <point x="285" y="681" type="line"/>
      <point x="285" y="580" type="line"/>
      <point x="388" y="681" type="line"/>
      <point x="460" y="681" type="line"/>
      <point x="460" y="0" type="line"/>
      <point x="388" y="0" type="line"/>
      <point x="388" y="589" type="line"/>
      <point x="285" y="493" type="line"/>
      <point x="285" y="0" type="line"/>
      <point x="213" y="0" type="line"/>
    </contour>
  </outline>
</glyph>
<glyph name="N" format="1">
  <advance width="342"/>
  <unicode hex="004E"/>
  <outline>
    <contour>
      <point x="122" y="574" type="line"/>
      <point x="122" y="0" type="line"/>
      <point x="50" y="0" type="line"/>
      <point x="50" y="681" type="line"/>
      <point x="122" y="681" type="line"/>
      <point x="220" y="572" type="line"/>
      <point x="220" y="680" type="line"/>
      <point x="292" y="680" type="line"/>
      <point x="292" y="0" type="line"/>
      <point x="220" y="0" type="line"/>
      <point x="220" y="469" type="line"/>
    </contour>
  </outline>
</glyph>
<glyph name="O" format="1">
  <advance width="326"/>
  <unicode hex="004F"/>
  <outline>
    <contour>
      <point x="281" y="681" type="line"/>
      <point x="281" y="613" type="line"/>
      <point x="211" y="613" type="line"/>
      <point x="280" y="556" type="line"/>
      <point x="281" y="126" type="line" smooth="yes"/>
      <point x="281" y="54"/>
      <point x="219" y="-7"/>
      <point x="165" y="-7" type="qcurve" smooth="yes"/>
      <point x="142" y="-7"/>
      <point x="100" y="8"/>
      <point x="83.0" y="23.5" type="qcurve" smooth="yes" name="inserted"/>
      <point x="66" y="39"/>
      <point x="46" y="90"/>
      <point x="46" y="126" type="qcurve" smooth="yes"/>
      <point x="46" y="559" type="line"/>
      <point x="112" y="613" type="line"/>
      <point x="45" y="613" type="line"/>
      <point x="45" y="681" type="line"/>
    </contour>
    <contour>
      <point x="121" y="126" type="line" smooth="yes"/>
      <point x="121" y="91"/>
      <point x="144" y="61"/>
      <point x="165" y="61" type="qcurve" smooth="yes"/>
      <point x="186" y="61"/>
      <point x="204" y="91"/>
      <point x="204" y="126" type="qcurve" smooth="yes"/>
      <point x="203" y="527" type="line"/>
      <point x="162" y="562" type="line"/>
      <point x="161" y="562"/>
      <point x="148" y="552"/>
      <point x="140.5" y="545.5" type="qcurve" smooth="yes" name="inserted"/>
      <point x="133" y="539"/>
      <point x="120" y="527"/>
      <point x="120" y="527" type="qcurve"/>
    </contour>
  </outline>
</glyph>
<glyph name="P" format="1">
  <advance width="305"/>
  <unicode hex="0050"/>
  <outline>
    <contour>
      <point x="118" y="249" type="line"/>
      <point x="120" y="0" type="line"/>
      <point x="50" y="0" type="line"/>
      <point x="50" y="682" type="line"/>
      <point x="164" y="682" type="line" smooth="yes"/>
      <point x="188" y="682"/>
      <point x="233" y="672"/>
      <point x="250.0" y="658.5" type="qcurve" smooth="yes" name="inserted"/>
      <point x="267" y="645"/>
      <point x="288" y="598"/>
      <point x="288" y="561" type="qcurve" smooth="yes"/>
      <point x="288" y="416" type="line"/>
    </contour>
    <contour>
      <point x="120" y="345" type="line"/>
      <point x="216" y="441" type="line"/>
      <point x="216" y="551" type="line" smooth="yes"/>
      <point x="216" y="572"/>
      <point x="208" y="597"/>
      <point x="201.0" y="603.0" type="qcurve" smooth="yes" name="inserted"/>
      <point x="194" y="609"/>
      <point x="175" y="613"/>
      <point x="165" y="613" type="qcurve" smooth="yes"/>
      <point x="120" y="613" type="line"/>
    </contour>
  </outline>
</glyph>
<glyph name="Q" format="1">
  <advance width="326"/>
  <unicode hex="0051"/>
  <outline>
    <contour>
      <point x="201" y="-18" type="line"/>
      <point x="201" y="-97" type="line"/>
      <point x="127" y="-97" type="line"/>
      <point x="127" y="-18" type="line"/>
      <point x="46" y="63" type="line"/>
      <point x="46" y="559" type="line"/>
      <point x="112" y="613" type="line"/>
      <point x="45" y="613" type="line"/>
      <point x="45" y="681" type="line"/>
      <point x="281" y="681" type="line"/>
      <point x="281" y="613" type="line"/>
      <point x="211" y="613" type="line"/>
      <point x="280" y="556" type="line"/>
      <point x="280" y="61" type="line"/>
    </contour>
    <contour>
      <point x="203" y="91" type="qcurve"/>
      <point x="203" y="91"/>
      <point x="203" y="137"/>
      <point x="203.0" y="173.5" type="qcurve" smooth="yes" name="inserted"/>
      <point x="203" y="210"/>
      <point x="203" y="304"/>
      <point x="203.0" y="352.0" type="qcurve" smooth="yes" name="inserted"/>
      <point x="203" y="400"/>
      <point x="203" y="492"/>
      <point x="203" y="527" type="qcurve"/>
      <point x="162" y="565" type="line" smooth="yes"/>
      <point x="161" y="566"/>
      <point x="148" y="554"/>
      <point x="140.5" y="547.0" type="qcurve" smooth="yes" name="inserted"/>
      <point x="133" y="540"/>
      <point x="120" y="527"/>
      <point x="120" y="527" type="qcurve"/>
      <point x="120" y="91" type="line"/>
      <point x="162" y="49" type="line"/>
      <point x="165" y="51"/>
      <point x="178" y="65"/>
      <point x="185.0" y="72.0" type="qcurve" smooth="yes" name="inserted"/>
      <point x="192" y="79"/>
      <point x="203" y="91"/>
    </contour>
  </outline>
</glyph>
<glyph name="R" format="1">
  <advance width="326"/>
  <unicode hex="0052"/>
  <outline>
    <contour>
      <point x="214" y="239" type="line"/>
      <point x="164" y="292" type="line"/>
      <point x="120" y="250" type="line"/>
      <point x="120" y="0" type="line"/>
      <point x="50" y="0" type="line"/>
      <point x="50" y="680" type="line"/>
      <point x="168" y="680" type="line" smooth="yes"/>
      <point x="192" y="680"/>
      <point x="235" y="670"/>
      <point x="251.0" y="657.0" type="qcurve" smooth="yes" name="inserted"/>
      <point x="267" y="644"/>
      <point x="286" y="598"/>
      <point x="286" y="561" type="qcurve" smooth="yes"/>
      <point x="286" y="412" type="line"/>
      <point x="214" y="340" type="line"/>
      <point x="286" y="266" type="line"/>
      <point x="286" y="0" type="line"/>
      <point x="214" y="0" type="line"/>
    </contour>
    <contour>
      <point x="122" y="342" type="line"/>
      <point x="219" y="439" type="line"/>
      <point x="219" y="550" type="line" smooth="yes"/>
      <point x="219" y="571"/>
      <point x="211" y="596"/>
      <point x="204.0" y="602.5" type="qcurve" smooth="yes" name="inserted"/>
      <point x="197" y="609"/>
      <point x="178" y="613"/>
      <point x="168" y="613" type="qcurve" smooth="yes"/>
      <point x="122" y="613" type="line"/>
    </contour>
  </outline>
</glyph>
<glyph name="T" format="1">
  <advance width="252"/>
  <unicode hex="0054"/>
  <outline>
    <contour>
      <point x="10" y="682" type="line"/>
      <point x="242" y="682" type="line"/>
      <point x="242" y="613" type="line"/>
      <point x="165" y="613" type="line"/>
      <point x="165" y="0" type="line"/>
      <point x="94" y="0" type="line"/>
      <point x="94" y="613" type="line"/>
      <point x="10" y="613" type="line"/>
    </contour>
  </outline>
</glyph>
<glyph name="U" format="1">
  <advance width="329"/>
  <unicode hex="0055"/>
  <outline>
    <contour>
      <point x="47" y="680" type="line"/>
      <point x="118" y="680" type="line"/>
      <point x="118" y="142" type="line" smooth="yes"/>
      <point x="118" y="94"/>
      <point x="136" y="61"/>
      <point x="164" y="61" type="qcurve" smooth="yes"/>
      <point x="192" y="61"/>
      <point x="212" y="94"/>
      <point x="213" y="142" type="qcurve" smooth="yes"/>
      <point x="213" y="431" type="line"/>
      <point x="213" y="680" type="line"/>
      <point x="282" y="680" type="line"/>
      <point x="282" y="104" type="line" smooth="yes"/>
      <point x="282" y="86"/>
      <point x="270" y="46"/>
      <point x="256.5" y="29.0" type="qcurve" smooth="yes" name="inserted"/>
      <point x="243" y="12"/>
      <point x="197" y="-10"/>
      <point x="164" y="-10" type="qcurve" smooth="yes"/>
      <point x="128" y="-10"/>
      <point x="83" y="12"/>
      <point x="70.0" y="28.5" type="qcurve" smooth="yes" name="inserted"/>
      <point x="57" y="45"/>
      <point x="47" y="86"/>
      <point x="47" y="104" type="qcurve" smooth="yes"/>
    </contour>
  </outline>
</glyph>
<glyph name="W" format="1">
  <advance width="495"/>
  <unicode hex="0057"/>
  <outline>
    <contour>
      <point x="116" y="682" type="line"/>
      <point x="116" y="148" type="line"/>
      <point x="160" y="101" type="line"/>
      <point x="213" y="148" type="line"/>
      <point x="211" y="682" type="line"/>
      <point x="284" y="682" type="line"/>
      <point x="284" y="148" type="line"/>
      <point x="332" y="99" type="line"/>
      <point x="381" y="148" type="line"/>
      <point x="379" y="682" type="line"/>
      <point x="449" y="682" type="line"/>
      <point x="449" y="114" type="line"/>
      <point x="332" y="0" type="line"/>
      <point x="249" y="83" type="line"/>
      <point x="160" y="0" type="line"/>
      <point x="45" y="112" type="line"/>
      <point x="45" y="682" type="line"/>
    </contour>
  </outline>
</glyph>
<glyph name="X" format="1">
  <advance width="328"/>
  <unicode hex="0058"/>
  <outline>
    <contour>
      <point x="116" y="680" type="line"/>
      <point x="116" y="419" type="line"/>
      <point x="162" y="374" type="line"/>
      <point x="207" y="419" type="line"/>
      <point x="207" y="680" type="line"/>
      <point x="283" y="680" type="line"/>
      <point x="283" y="395" type="line"/>
      <point x="207" y="322" type="line"/>
      <point x="283" y="250" type="line"/>
      <point x="283" y="0" type="line"/>
      <point x="207" y="0" type="line"/>
      <point x="207" y="224" type="line"/>
      <point x="160" y="271" type="line"/>
      <point x="116" y="224" type="line"/>
      <point x="116" y="0" type="line"/>
      <point x="45" y="0" type="line"/>
      <point x="45" y="250" type="line"/>
      <point x="116" y="322" type="line"/>
      <point x="45" y="395" type="line"/>
      <point x="45" y="680" type="line"/>
    </contour>
  </outline>
</glyph>
<glyph name="Y" format="1">
  <advance width="293"/>
  <unicode hex="0059"/>
  <outline>
    <contour>
      <point x="100" y="680" type="line"/>
      <point x="100" y="433" type="line"/>
      <point x="148" y="386" type="line"/>
      <point x="194" y="433" type="line"/>
      <point x="194" y="680" type="line"/>
      <point x="263" y="680" type="line"/>
      <point x="263" y="410" type="line"/>
      <point x="184" y="329" type="line"/>
      <point x="184" y="0" type="line"/>
      <point x="114" y="0" type="line"/>
      <point x="114" y="329" type="line"/>
      <point x="30" y="411" type="line"/>
      <point x="30" y="680" type="line"/>
    </contour>
  </outline>
</glyph>
<glyph name="bracketleft" format="1">
  <advance width="242"/>
  <unicode hex="005B"/>
  <outline>
    <contour>
      <point x="53" y="-73" type="line"/>
      <point x="53" y="757" type="line"/>
      <point x="224" y="757" type="line"/>
      <point x="224" y="681" type="line"/>
      <point x="125" y="681" type="line"/>
      <point x="125" y="0" type="line"/>
      <point x="224" y="0" type="line"/>
      <point x="224" y="-73" type="line"/>
    </contour>
  </outline>
</glyph>
<glyph name="backslash" format="1">
  <advance width="346"/>
  <unicode hex="005C"/>
  <outline>
    <contour>
      <point x="336" y="0" type="line"/>
      <point x="257" y="0" type="line"/>
      <point x="12" y="682" type="line"/>
      <point x="87" y="682" type="line"/>
    </contour>
  </outline>
</glyph>
<glyph name="bracketright" format="1">
  <advance width="235"/>
  <unicode hex="005D"/>
  <outline>
    <contour>
      <point x="29" y="-73" type="line"/>
      <point x="29" y="0" type="line"/>
      <point x="128" y="0" type="line"/>
      <point x="128" y="681" type="line"/>
      <point x="29" y="681" type="line"/>
      <point x="29" y="757" type="line"/>
      <point x="200" y="757" type="line"/>
      <point x="200" y="-73" type="line"/>
    </contour>
  </outline>
</glyph>
<glyph name="asciicircum" format="1">
  <advance width="348"/>
  <unicode hex="005E"/>
  <outline>
    <contour>
      <point x="289" y="671" type="line"/>
      <point x="251" y="633" type="line"/>
      <point x="179" y="695" type="line"/>
      <point x="108" y="633" type="line"/>
      <point x="70" y="671" type="line"/>
      <point x="179" y="780" type="line"/>
    </contour>
  </outline>
</glyph>
<glyph name="underscore" format="1">
  <advance width="632"/>
  <unicode hex="005F"/>
  <outline>
    <contour>
      <point x="50" y="0" type="line"/>
      <point x="582" y="0" type="line"/>
      <point x="582" y="-63" type="line"/>
      <point x="50" y="-63" type="line"/>
    </contour>
  </outline>
</glyph>
<glyph name="grave" format="1">
  <advance width="237"/>
  <unicode hex="0060"/>
  <outline>
    <contour>
      <point x="31" y="773" type="line"/>
      <point x="84" y="830" type="line"/>
      <point x="168" y="743" type="line"/>
      <point x="130" y="701" type="line"/>
    </contour>
  </outline>
</glyph>
<glyph name="a" format="1">
  <advance width="334"/>
  <unicode hex="0061"/>
  <outline>
    <contour>
      <point x="286" y="681" type="line"/>
      <point x="286" y="0" type="line"/>
      <point x="216" y="0" type="line"/>
      <point x="216" y="117" type="line"/>
      <point x="115" y="0" type="line"/>
      <point x="47" y="0" type="line"/>
      <point x="47" y="580" type="line" smooth="yes"/>
      <point x="47" y="601"/>
      <point x="49" y="638"/>
      <point x="56.0" y="651.5" type="qcurve" smooth="yes" name="inserted"/>
      <point x="63" y="665"/>
      <point x="93" y="681"/>
      <point x="121" y="681" type="qcurve" smooth="yes"/>
    </contour>
    <contour>
      <point x="216" y="613" type="line"/>
      <point x="115" y="613" type="line"/>
      <point x="115" y="96" type="line"/>
      <point x="216" y="216" type="line"/>
    </contour>
  </outline>
</glyph>
<glyph name="c" format="1">
  <advance width="293"/>
  <unicode hex="0063"/>
  <outline>
    <contour>
      <point x="278" y="97" type="line"/>
      <point x="179" y="0" type="line"/>
      <point x="144" y="0" type="line"/>
      <point x="40" y="103" type="line"/>
      <point x="40" y="592" type="line" smooth="yes"/>
      <point x="40" y="613"/>
      <point x="43" y="647"/>
      <point x="49.0" y="658.0" type="qcurve" smooth="yes" name="inserted"/>
      <point x="55" y="669"/>
      <point x="82" y="681"/>
      <point x="106" y="681" type="qcurve" smooth="yes"/>
      <point x="263" y="681" type="line"/>
      <point x="263" y="538" type="line"/>
      <point x="196" y="538" type="line"/>
      <point x="196" y="613" type="line"/>
      <point x="114" y="613" type="line"/>
      <point x="114" y="129" type="line"/>
      <point x="162" y="77" type="line"/>
      <point x="230" y="145" type="line"/>
    </contour>
  </outline>
</glyph>
<glyph name="d" format="1">
  <advance width="328"/>
  <unicode hex="0064"/>
  <outline>
    <contour>
      <point x="50" y="680" type="line"/>
      <point x="181" y="680" type="line" smooth="yes"/>
      <point x="231" y="680"/>
      <point x="290" y="612"/>
      <point x="290" y="551" type="qcurve" smooth="yes"/>
      <point x="290" y="120" type="line"/>
      <point x="171" y="0" type="line"/>
      <point x="50" y="0" type="line"/>
    </contour>
    <contour>
      <point x="220" y="524" type="line" smooth="yes"/>
      <point x="220" y="557"/>
      <point x="209" y="593"/>
      <point x="199.0" y="601.0" type="qcurve" smooth="yes" name="inserted"/>
      <point x="189" y="609"/>
      <point x="160" y="612"/>
      <point x="143" y="612" type="qcurve" smooth="yes"/>
      <point x="120" y="612" type="line"/>
      <point x="120" y="68" type="line"/>
      <point x="141" y="68" type="line"/>
      <point x="220" y="147" type="line"/>
    </contour>
  </outline>
</glyph>
<glyph name="e" format="1">
  <advance width="278"/>
  <unicode hex="0065"/>
  <outline>
    <contour>
      <point x="263" y="613" type="line"/>
      <point x="114" y="613" type="line"/>
      <point x="114" y="220" type="line"/>
      <point x="183" y="288" type="line"/>
      <point x="231" y="239" type="line"/>
      <point x="114" y="123" type="line"/>
      <point x="114" y="68" type="line"/>
      <point x="263" y="68" type="line"/>
      <point x="263" y="0" type="line"/>
      <point x="45" y="0" type="line"/>
      <point x="45" y="680" type="line"/>
      <point x="263" y="680" type="line"/>
    </contour>
  </outline>
</glyph>
<glyph name="g" format="1">
  <advance width="326"/>
  <unicode hex="0067"/>
  <outline>
    <contour>
      <point x="48" y="680" type="line"/>
      <point x="188" y="680" type="line" smooth="yes"/>
      <point x="230" y="680"/>
      <point x="284" y="635"/>
      <point x="284" y="587" type="qcurve" smooth="yes"/>
      <point x="284" y="420" type="line"/>
      <point x="213" y="420" type="line"/>
      <point x="213" y="551" type="line" smooth="yes"/>
      <point x="213" y="578"/>
      <point x="199" y="604"/>
      <point x="189.5" y="609.5" type="qcurve" smooth="yes" name="inserted"/>
      <point x="180" y="615"/>
      <point x="161" y="614"/>
      <point x="155" y="614" type="qcurve" smooth="yes"/>
      <point x="117" y="614" type="line"/>
      <point x="117" y="130" type="line"/>
      <point x="170" y="80" type="line"/>
      <point x="217" y="130" type="line"/>
      <point x="217" y="291" type="line"/>
      <point x="168" y="291" type="line"/>
      <point x="168" y="358" type="line"/>
      <point x="286" y="359" type="line"/>
      <point x="286" y="98" type="line"/>
      <point x="187" y="0" type="line"/>
      <point x="152" y="0" type="line"/>
      <point x="48" y="104" type="line"/>
    </contour>
  </outline>
</glyph>
<glyph name="h" format="1">
  <advance width="359"/>
  <unicode hex="0068"/>
  <outline>
    <contour>
      <point x="309" y="683" type="line"/>
      <point x="309" y="1" type="line"/>
      <point x="238" y="1" type="line"/>
      <point x="238" y="115" type="line"/>
      <point x="181" y="56" type="line"/>
      <point x="121" y="115" type="line"/>
      <point x="121" y="1" type="line"/>
      <point x="50" y="1" type="line"/>
      <point x="50" y="683" type="line"/>
      <point x="121" y="683" type="line"/>
      <point x="121" y="212" type="line"/>
      <point x="129" y="204"/>
      <point x="148" y="184"/>
      <point x="158" y="174" type="qcurve" smooth="yes"/>
      <point x="163.5" y="168.5" name="inserted"/>
      <point x="175.0" y="157.0"/>
      <point x="181" y="151" type="qcurve"/>
      <point x="238" y="213" type="line"/>
      <point x="238" y="683" type="line"/>
    </contour>
  </outline>
</glyph>
<glyph name="i" format="1">
  <advance width="203"/>
  <unicode hex="0069"/>
  <outline>
    <contour>
      <point x="135" y="681" type="line"/>
      <point x="135" y="0" type="line"/>
      <point x="64" y="0" type="line"/>
      <point x="64" y="681" type="line"/>
    </contour>
    <contour>
      <point x="101" y="830" type="line"/>
      <point x="158" y="774" type="line"/>
      <point x="101" y="718" type="line"/>
      <point x="45" y="774" type="line"/>
    </contour>
  </outline>
</glyph>
<glyph name="j" format="1">
  <advance width="309"/>
  <unicode hex="006A"/>
  <outline>
    <contour>
      <point x="166" y="0" type="line"/>
      <point x="136" y="0" type="line"/>
      <point x="20" y="116" type="line"/>
      <point x="66" y="162" type="line"/>
      <point x="151" y="78" type="line"/>
      <point x="198" y="124" type="line"/>
      <point x="197" y="613" type="line"/>
      <point x="92" y="613" type="line"/>
      <point x="92" y="484" type="line"/>
      <point x="23" y="484" type="line"/>
      <point x="23" y="682" type="line"/>
      <point x="268" y="682" type="line"/>
      <point x="269" y="102" type="line"/>
    </contour>
  </outline>
</glyph>
<glyph name="k" format="1">
  <advance width="329"/>
  <unicode hex="006B"/>
  <outline>
    <contour>
      <point x="120" y="680" type="line"/>
      <point x="120" y="218" type="line"/>
      <point x="215" y="313" type="line"/>
      <point x="215" y="680" type="line"/>
      <point x="285" y="680" type="line"/>
      <point x="285" y="288" type="line"/>
      <point x="204" y="206" type="line"/>
      <point x="285" y="125" type="line"/>
      <point x="285" y="0" type="line"/>
      <point x="215" y="0" type="line"/>
      <point x="215" y="103" type="line"/>
      <point x="156" y="161" type="line"/>
      <point x="120" y="125" type="line"/>
      <point x="120" y="0" type="line"/>
      <point x="51" y="0" type="line"/>
      <point x="50" y="680" type="line"/>
    </contour>
  </outline>
</glyph>
<glyph name="l" format="1">
  <advance width="254"/>
  <unicode hex="006C"/>
  <outline>
    <contour>
      <point x="120" y="681" type="line"/>
      <point x="120" y="68" type="line"/>
      <point x="252" y="68" type="line"/>
      <point x="252" y="0" type="line"/>
      <point x="50" y="0" type="line"/>
      <point x="50" y="681" type="line"/>
    </contour>
  </outline>
</glyph>
<glyph name="m" format="1">
  <advance width="491"/>
  <unicode hex="006D"/>
  <outline>
    <contour>
      <point x="45" y="0" type="line"/>
      <point x="45" y="580" type="line"/>
      <point x="164" y="702" type="line"/>
      <point x="249" y="616" type="line"/>
      <point x="331" y="702" type="line"/>
      <point x="449" y="584" type="line"/>
      <point x="449" y="0" type="line"/>
      <point x="379" y="0" type="line"/>
      <point x="379" y="562" type="line"/>
      <point x="332" y="608" type="line"/>
      <point x="281" y="557" type="line"/>
      <point x="281" y="0" type="line"/>
      <point x="211" y="0" type="line"/>
      <point x="211" y="562" type="line"/>
      <point x="165" y="608" type="line"/>
      <point x="115" y="557" type="line"/>
      <point x="115" y="0" type="line"/>
    </contour>
  </outline>
</glyph>
<glyph name="n" format="1">
  <advance width="341"/>
  <unicode hex="006E"/>
  <outline>
    <contour>
      <point x="120" y="465" type="line"/>
      <point x="120" y="0" type="line"/>
      <point x="50" y="0" type="line"/>
      <point x="50" y="681" type="line"/>
      <point x="120" y="681" type="line"/>
      <point x="120" y="564" type="line"/>
      <point x="221" y="681" type="line"/>
      <point x="291" y="681" type="line"/>
      <point x="291" y="0" type="line"/>
      <point x="221" y="0" type="line"/>
      <point x="221" y="585" type="line"/>
    </contour>
  </outline>
</glyph>
<glyph name="o" format="1">
  <advance width="326"/>
  <unicode hex="006F"/>
  <outline>
    <contour>
      <point x="281" y="554" type="qcurve" smooth="yes"/>
      <point x="281" y="127" type="line" smooth="yes"/>
      <point x="281" y="55"/>
      <point x="218" y="-6"/>
      <point x="164" y="-6" type="qcurve" smooth="yes"/>
      <point x="141" y="-6"/>
      <point x="99" y="9"/>
      <point x="82.0" y="24.5" type="qcurve" smooth="yes" name="inserted"/>
      <point x="65" y="40"/>
      <point x="45" y="91"/>
      <point x="45" y="127" type="qcurve" smooth="yes"/>
      <point x="45" y="196" type="line"/>
      <point x="46" y="196" type="line"/>
      <point x="46" y="227"/>
      <point x="46" y="303"/>
      <point x="45.5" y="342.0" type="qcurve" smooth="yes" name="inserted"/>
      <point x="45" y="381"/>
      <point x="45" y="456"/>
      <point x="45" y="485" type="qcurve" smooth="yes"/>
      <point x="45" y="554" type="line" smooth="yes"/>
      <point x="45" y="590"/>
      <point x="65" y="641"/>
      <point x="82.0" y="656.5" type="qcurve" smooth="yes" name="inserted"/>
      <point x="99" y="672"/>
      <point x="141" y="687"/>
      <point x="164" y="687" type="qcurve" smooth="yes"/>
      <point x="218" y="687"/>
      <point x="281" y="626"/>
    </contour>
    <contour>
      <point x="206" y="557" type="line" smooth="yes"/>
      <point x="206" y="592"/>
      <point x="185" y="619"/>
      <point x="164" y="619" type="qcurve" smooth="yes"/>
      <point x="143" y="619"/>
      <point x="120" y="589"/>
      <point x="120" y="554" type="qcurve" smooth="yes"/>
      <point x="120" y="127" type="line" smooth="yes"/>
      <point x="120" y="92"/>
      <point x="143" y="62"/>
      <point x="164" y="62" type="qcurve" smooth="yes"/>
      <point x="185" y="62"/>
      <point x="206" y="89"/>
      <point x="206" y="124" type="qcurve" smooth="yes"/>
    </contour>
  </outline>
</glyph>
<glyph name="p" format="1">
  <advance width="310"/>
  <unicode hex="0070"/>
  <outline>
    <contour>
      <point x="120" y="124" type="line"/>
      <point x="120" y="0" type="line"/>
      <point x="50" y="0" type="line"/>
      <point x="50" y="680" type="line"/>
      <point x="164" y="680" type="line" smooth="yes"/>
      <point x="188" y="680"/>
      <point x="233" y="670"/>
      <point x="250.0" y="656.5" type="qcurve" smooth="yes" name="inserted"/>
      <point x="267" y="643"/>
      <point x="288" y="597"/>
      <point x="288" y="560" type="qcurve" smooth="yes"/>
      <point x="288" y="289" type="line"/>
    </contour>
    <contour>
      <point x="120" y="219" type="line"/>
      <point x="216" y="311" type="line"/>
      <point x="216" y="551" type="line" smooth="yes"/>
      <point x="216" y="572"/>
      <point x="208" y="597"/>
      <point x="201.0" y="603.0" type="qcurve" smooth="yes" name="inserted"/>
      <point x="194" y="609"/>
      <point x="175" y="613"/>
      <point x="165" y="613" type="qcurve" smooth="yes"/>
      <point x="120" y="613" type="line"/>
    </contour>
  </outline>
</glyph>
<glyph name="q" format="1">
  <advance width="323"/>
  <unicode hex="0071"/>
  <outline>
    <contour>
      <point x="219" y="-5" type="line"/>
      <point x="283" y="-72" type="line"/>
      <point x="232" y="-123" type="line"/>
      <point x="84" y="27" type="line"/>
      <point x="48" y="62" type="line"/>
      <point x="48" y="63" type="line"/>
      <point x="47" y="64" type="line"/>
      <point x="48" y="65" type="line"/>
      <point x="47" y="550" type="line" smooth="yes"/>
      <point x="47" y="622"/>
      <point x="109" y="683"/>
      <point x="163" y="683" type="qcurve" smooth="yes"/>
      <point x="185" y="683"/>
      <point x="228" y="668"/>
      <point x="245.0" y="652.5" type="qcurve" smooth="yes" name="inserted"/>
      <point x="262" y="637"/>
      <point x="282" y="586"/>
      <point x="282" y="550" type="qcurve" smooth="yes"/>
      <point x="282" y="61" type="line"/>
    </contour>
    <contour>
      <point x="166" y="48" type="line"/>
      <point x="166" y="49"/>
      <point x="178" y="62"/>
      <point x="186.0" y="70.0" type="qcurve" smooth="yes" name="inserted"/>
      <point x="194" y="78"/>
      <point x="208" y="91"/>
      <point x="208" y="91" type="qcurve"/>
      <point x="208" y="91"/>
      <point x="208" y="153"/>
      <point x="208.0" y="200.0" type="qcurve" smooth="yes" name="inserted"/>
      <point x="208" y="247"/>
      <point x="208" y="360"/>
      <point x="207.5" y="411.0" type="qcurve" smooth="yes" name="inserted"/>
      <point x="207" y="462"/>
      <point x="207" y="538"/>
      <point x="207" y="550" type="qcurve" smooth="yes"/>
      <point x="207" y="585"/>
      <point x="184" y="615"/>
      <point x="163" y="615" type="qcurve" smooth="yes"/>
      <point x="142" y="615"/>
      <point x="124" y="585"/>
      <point x="124" y="550" type="qcurve" smooth="yes"/>
      <point x="125" y="91" type="line"/>
    </contour>
  </outline>
</glyph>
<glyph name="r" format="1">
  <advance width="325"/>
  <unicode hex="0072"/>
  <outline>
    <contour>
      <point x="213" y="116" type="line"/>
      <point x="163" y="167" type="line"/>
      <point x="120" y="125" type="line"/>
      <point x="120" y="0" type="line"/>
      <point x="50" y="0" type="line"/>
      <point x="50" y="681" type="line"/>
      <point x="167" y="681" type="line" smooth="yes"/>
      <point x="191" y="681"/>
      <point x="234" y="671"/>
      <point x="250.0" y="657.5" type="qcurve" smooth="yes" name="inserted"/>
      <point x="266" y="644"/>
      <point x="285" y="598"/>
      <point x="285" y="561" type="qcurve" smooth="yes"/>
      <point x="285" y="289" type="line"/>
      <point x="213" y="216" type="line"/>
      <point x="285" y="143" type="line"/>
      <point x="285" y="0" type="line"/>
      <point x="213" y="0" type="line"/>
    </contour>
    <contour>
      <point x="120" y="219" type="line"/>
      <point x="213" y="311" type="line"/>
      <point x="213" y="548" type="line" smooth="yes"/>
      <point x="213" y="590"/>
      <point x="187" y="613"/>
      <point x="167" y="613" type="qcurve" smooth="yes"/>
      <point x="120" y="613" type="line"/>
    </contour>
  </outline>
</glyph>
<glyph name="s" format="1">
  <advance width="308"/>
  <unicode hex="0073"/>
  <outline>
    <contour>
      <point x="156" y="690" type="qcurve" smooth="yes"/>
      <point x="188" y="690"/>
      <point x="231" y="670"/>
      <point x="244.0" y="655.5" type="qcurve" smooth="yes" name="inserted"/>
      <point x="257" y="641"/>
      <point x="268" y="606"/>
      <point x="268" y="591" type="qcurve" smooth="yes"/>
      <point x="268" y="453" type="line"/>
      <point x="197" y="453" type="line"/>
      <point x="197" y="582" type="line" smooth="yes"/>
      <point x="197" y="603"/>
      <point x="174" y="626"/>
      <point x="155" y="626" type="qcurve" smooth="yes"/>
      <point x="136" y="626"/>
      <point x="111" y="601"/>
      <point x="111" y="581" type="qcurve" smooth="yes"/>
      <point x="111" y="452" type="line"/>
      <point x="268" y="299" type="line"/>
      <point x="268" y="102" type="line" smooth="yes"/>
      <point x="268" y="85"/>
      <point x="253" y="47"/>
      <point x="238.5" y="31.0" type="qcurve" smooth="yes" name="inserted"/>
      <point x="224" y="15"/>
      <point x="181" y="-5"/>
      <point x="153" y="-5" type="qcurve" smooth="yes"/>
      <point x="124" y="-5"/>
      <point x="82" y="15"/>
      <point x="68.0" y="30.5" type="qcurve" smooth="yes" name="inserted"/>
      <point x="54" y="46"/>
      <point x="40" y="84"/>
      <point x="40" y="102" type="qcurve" smooth="yes"/>
      <point x="40" y="277" type="line"/>
      <point x="111" y="277" type="line"/>
      <point x="111" y="113" type="line" smooth="yes"/>
      <point x="111" y="92"/>
      <point x="140" y="65"/>
      <point x="153" y="65" type="qcurve" smooth="yes"/>
      <point x="170" y="65"/>
      <point x="197" y="94"/>
      <point x="197" y="114" type="qcurve" smooth="yes"/>
      <point x="197" y="263" type="line"/>
      <point x="40" y="412" type="line"/>
      <point x="40" y="591" type="line" smooth="yes"/>
      <point x="40" y="606"/>
      <point x="53" y="641"/>
      <point x="67.5" y="656.0" type="qcurve" smooth="yes" name="inserted"/>
      <point x="82" y="671"/>
      <point x="126" y="690"/>
    </contour>
  </outline>
</glyph>
<glyph name="t" format="1">
  <advance width="262"/>
  <unicode hex="0074"/>
  <outline>
    <contour>
      <point x="15" y="682" type="line"/>
      <point x="247" y="682" type="line"/>
      <point x="247" y="613" type="line"/>
      <point x="170" y="613" type="line"/>
      <point x="170" y="0" type="line"/>
      <point x="99" y="0" type="line"/>
      <point x="99" y="613" type="line"/>
      <point x="15" y="613" type="line"/>
    </contour>
  </outline>
</glyph>
<glyph name="u" format="1">
  <advance width="336"/>
  <unicode hex="0075"/>
  <outline>
    <contour>
      <point x="221" y="216" type="line"/>
      <point x="221" y="681" type="line"/>
      <point x="291" y="681" type="line"/>
      <point x="291" y="0" type="line"/>
      <point x="221" y="0" type="line"/>
      <point x="221" y="117" type="line"/>
      <point x="120" y="0" type="line"/>
      <point x="50" y="0" type="line"/>
      <point x="50" y="681" type="line"/>
      <point x="120" y="681" type="line"/>
      <point x="120" y="96" type="line"/>
    </contour>
  </outline>
</glyph>
<glyph name="v" format="1">
  <advance width="326"/>
  <unicode hex="0076"/>
  <outline>
    <contour>
      <point x="111" y="680" type="line"/>
      <point x="111" y="146" type="line"/>
      <point x="160" y="97" type="line"/>
      <point x="210" y="146" type="line"/>
      <point x="210" y="680" type="line"/>
      <point x="281" y="680" type="line"/>
      <point x="281" y="111" type="line"/>
      <point x="160" y="0" type="line"/>
      <point x="45" y="111" type="line"/>
      <point x="45" y="680" type="line"/>
    </contour>
  </outline>
</glyph>
<glyph name="w" format="1">
  <advance width="494"/>
  <unicode hex="0077"/>
  <outline>
    <contour>
      <point x="287" y="90" type="line"/>
      <point x="390" y="196" type="line"/>
      <point x="390" y="681" type="line"/>
      <point x="462" y="681" type="line"/>
      <point x="462" y="177" type="line"/>
      <point x="287" y="-2" type="line"/>
      <point x="215" y="-1" type="line"/>
      <point x="215" y="99" type="line"/>
      <point x="112" y="-1" type="line"/>
      <point x="112" y="1" type="line"/>
      <point x="40" y="1" type="line"/>
      <point x="40" y="681" type="line"/>
      <point x="112" y="681" type="line"/>
      <point x="112" y="90" type="line"/>
      <point x="215" y="186" type="line"/>
      <point x="215" y="681" type="line"/>
      <point x="287" y="681" type="line"/>
    </contour>
  </outline>
</glyph>
<glyph name="y" format="1">
  <advance width="327"/>
  <unicode hex="0079"/>
  <outline>
    <contour>
      <point x="119" y="680" type="line"/>
      <point x="121" y="196" type="line"/>
      <point x="164" y="152" type="line"/>
      <point x="206" y="196" type="line"/>
      <point x="204" y="680" type="line"/>
      <point x="280" y="680" type="line"/>
      <point x="282" y="170" type="line"/>
      <point x="207" y="96" type="line"/>
      <point x="205" y="0" type="line"/>
      <point x="119" y="0" type="line"/>
      <point x="121" y="96" type="line"/>
      <point x="47" y="170" type="line"/>
      <point x="45" y="680" type="line"/>
    </contour>
  </outline>
</glyph>
<glyph name="z" format="1">
  <advance width="298"/>
  <unicode hex="007A"/>
  <outline>
    <contour>
      <point x="188" y="184" type="line"/>
      <point x="258" y="184" type="line"/>
      <point x="258" y="0" type="line"/>
      <point x="45" y="0" type="line"/>
      <point x="45" y="270" type="line"/>
      <point x="180" y="405" type="line"/>
      <point x="180" y="613" type="line"/>
      <point x="109" y="613" type="line"/>
      <point x="109" y="492" type="line"/>
      <point x="40" y="492" type="line"/>
      <point x="40" y="680" type="line"/>
      <point x="248" y="680" type="line"/>
      <point x="248" y="382" type="line"/>
      <point x="114" y="247" type="line"/>
      <point x="114" y="68" type="line"/>
      <point x="188" y="68" type="line"/>
    </contour>
  </outline>
</glyph>
<glyph name="braceleft" format="1">
  <advance width="279"/>
  <unicode hex="007B"/>
  <outline>
    <contour>
      <point x="216" y="681" type="line" smooth="yes"/>
      <point x="204" y="681"/>
      <point x="190" y="679"/>
      <point x="185.5" y="676.5" type="qcurve" smooth="yes" name="inserted"/>
      <point x="181" y="674"/>
      <point x="176" y="667"/>
      <point x="172" y="662" type="qcurve"/>
      <point x="166" y="653"/>
      <point x="162" y="625"/>
      <point x="162" y="593" type="qcurve" smooth="yes"/>
      <point x="162" y="469" type="line" smooth="yes"/>
      <point x="162" y="428"/>
      <point x="157" y="388"/>
      <point x="150" y="373" type="qcurve" smooth="yes"/>
      <point x="145" y="361"/>
      <point x="136" y="345"/>
      <point x="121" y="333" type="qcurve"/>
      <point x="148" y="310"/>
      <point x="162" y="260"/>
      <point x="162" y="217" type="qcurve" smooth="yes"/>
      <point x="162" y="66" type="line" smooth="yes"/>
      <point x="162.0" y="54.5" name="inserted"/>
      <point x="166.0" y="35.0"/>
      <point x="170" y="27" type="qcurve"/>
      <point x="173" y="20"/>
      <point x="179" y="11"/>
      <point x="184.0" y="8.0" type="qcurve" smooth="yes" name="inserted"/>
      <point x="189" y="5"/>
      <point x="207" y="3"/>
      <point x="221" y="3" type="qcurve" smooth="yes"/>
      <point x="234" y="3" type="line"/>
      <point x="234" y="-62" type="line"/>
      <point x="222" y="-62" type="line" smooth="yes"/>
      <point x="211" y="-62"/>
      <point x="202" y="-62"/>
      <point x="197" y="-61" type="qcurve"/>
      <point x="175" y="-60"/>
      <point x="145" y="-45"/>
      <point x="131" y="-32" type="qcurve" smooth="yes"/>
      <point x="109" y="-11"/>
      <point x="92" y="53"/>
      <point x="92" y="114" type="qcurve" smooth="yes"/>
      <point x="92" y="219" type="line" smooth="yes"/>
      <point x="92" y="238"/>
      <point x="86" y="268"/>
      <point x="79.0" y="280.5" type="qcurve" smooth="yes" name="inserted"/>
      <point x="72" y="293"/>
      <point x="51" y="318"/>
      <point x="36" y="333" type="qcurve"/>
      <point x="48" y="346"/>
      <point x="69" y="367"/>
      <point x="76.5" y="380.0" type="qcurve" smooth="yes" name="inserted"/>
      <point x="84" y="393"/>
      <point x="92" y="429"/>
      <point x="92" y="459" type="qcurve" smooth="yes"/>
      <point x="92" y="571" type="line" smooth="yes"/>
      <point x="92" y="606"/>
      <point x="91" y="657"/>
      <point x="99" y="676" type="qcurve" smooth="yes"/>
      <point x="114" y="712"/>
      <point x="166" y="745"/>
      <point x="220" y="745" type="qcurve" smooth="yes"/>
      <point x="234" y="745" type="line"/>
      <point x="234" y="681" type="line"/>
    </contour>
  </outline>
</glyph>
<glyph name="bar" format="1">
  <advance width="253"/>
  <unicode hex="007C"/>
  <outline>
    <contour>
      <point x="154" y="786" type="line"/>
      <point x="154" y="-214" type="line"/>
      <point x="90" y="-214" type="line"/>
      <point x="90" y="786" type="line"/>
    </contour>
  </outline>
</glyph>
<glyph name="braceright" format="1">
  <advance width="269"/>
  <unicode hex="007D"/>
  <outline>
    <contour>
      <point x="35" y="681" type="line"/>
      <point x="35" y="745" type="line"/>
      <point x="49" y="745" type="line" smooth="yes"/>
      <point x="103" y="745"/>
      <point x="155" y="712"/>
      <point x="170" y="676" type="qcurve" smooth="yes"/>
      <point x="178" y="657"/>
      <point x="177" y="606"/>
      <point x="177" y="571" type="qcurve" smooth="yes"/>
      <point x="177" y="459" type="line" smooth="yes"/>
      <point x="177" y="429"/>
      <point x="185" y="393"/>
      <point x="192.5" y="380.0" type="qcurve" smooth="yes" name="inserted"/>
      <point x="200" y="367"/>
      <point x="221" y="346"/>
      <point x="233" y="333" type="qcurve"/>
      <point x="218" y="318"/>
      <point x="197" y="293"/>
      <point x="190.0" y="280.5" type="qcurve" smooth="yes" name="inserted"/>
      <point x="183" y="268"/>
      <point x="177" y="238"/>
      <point x="177" y="219" type="qcurve" smooth="yes"/>
      <point x="177" y="114" type="line" smooth="yes"/>
      <point x="177" y="53"/>
      <point x="160" y="-11"/>
      <point x="138" y="-32" type="qcurve" smooth="yes"/>
      <point x="124" y="-45"/>
      <point x="94" y="-60"/>
      <point x="72" y="-61" type="qcurve"/>
      <point x="67" y="-62"/>
      <point x="58" y="-62"/>
      <point x="47" y="-62" type="qcurve" smooth="yes"/>
      <point x="35" y="-62" type="line"/>
      <point x="35" y="3" type="line"/>
      <point x="48" y="3" type="line" smooth="yes"/>
      <point x="76" y="3"/>
      <point x="93" y="13"/>
      <point x="99" y="27" type="qcurve"/>
      <point x="103.0" y="35.0" name="inserted"/>
      <point x="107.0" y="54.5"/>
      <point x="107" y="66" type="qcurve" smooth="yes"/>
      <point x="107" y="217" type="line" smooth="yes"/>
      <point x="107" y="260"/>
      <point x="121" y="310"/>
      <point x="148" y="333" type="qcurve"/>
      <point x="133" y="345"/>
      <point x="124" y="361"/>
      <point x="119" y="373" type="qcurve"/>
      <point x="111" y="388"/>
      <point x="107" y="428"/>
      <point x="107" y="469" type="qcurve" smooth="yes"/>
      <point x="107" y="593" type="line" smooth="yes"/>
      <point x="107" y="625"/>
      <point x="103" y="653"/>
      <point x="97" y="662" type="qcurve"/>
      <point x="93" y="667"/>
      <point x="88" y="674"/>
      <point x="83.5" y="676.5" type="qcurve" smooth="yes" name="inserted"/>
      <point x="79" y="679"/>
      <point x="65" y="681"/>
      <point x="53" y="681" type="qcurve" smooth="yes"/>
    </contour>
  </outline>
</glyph>
<glyph name="asciitilde" format="1">
  <advance width="295"/>
  <unicode hex="007E"/>
  <outline>
    <contour>
      <point x="276" y="300" type="line"/>
      <point x="263" y="287"/>
      <point x="254" y="278"/>
      <point x="246" y="273" type="qcurve"/>
      <point x="234.5" y="264.0" name="inserted"/>
      <point x="210.5" y="255.0"/>
      <point x="198" y="255" type="qcurve" smooth="yes"/>
      <point x="188.5" y="255.0" name="inserted"/>
      <point x="166.0" y="263.0"/>
      <point x="153" y="271" type="qcurve" smooth="yes"/>
      <point x="140" y="279"/>
      <point x="127" y="284"/>
      <point x="119" y="284" type="qcurve" smooth="yes"/>
      <point x="110.5" y="284.0" name="inserted"/>
      <point x="87.5" y="269.0"/>
      <point x="73" y="254" type="qcurve"/>
      <point x="40" y="306" type="line"/>
      <point x="63" y="334"/>
      <point x="96" y="355"/>
      <point x="113" y="355" type="qcurve" smooth="yes"/>
      <point x="121" y="355"/>
      <point x="136" y="351"/>
      <point x="148" y="345" type="qcurve"/>
      <point x="172" y="331"/>
      <point x="189" y="325"/>
      <point x="198" y="325" type="qcurve" smooth="yes"/>
      <point x="209" y="325"/>
      <point x="229" y="337"/>
      <point x="243" y="353" type="qcurve"/>
      <point x="276" y="300" type="line"/>
    </contour>
  </outline>
</glyph>
<glyph name="exclamdown" format="1">
  <advance width="213"/>
  <unicode hex="00A1"/>
  <outline>
    <contour>
      <point x="144" y="530" type="line"/>
      <point x="144" y="-26" type="line"/>
      <point x="71" y="-26" type="line"/>
      <point x="71" y="530" type="line"/>
    </contour>
    <contour>
      <point x="163" y="631" type="line"/>
      <point x="107" y="575" type="line"/>
      <point x="50" y="631" type="line"/>
      <point x="107" y="687" type="line"/>
    </contour>
  </outline>
</glyph>
<glyph name="dieresis" format="1">
  <advance width="292"/>
  <unicode hex="00A8"/>
  <outline>
    <contour>
      <point x="260" y="774" type="line"/>
      <point x="204" y="718" type="line"/>
      <point x="147" y="774" type="line"/>
      <point x="204" y="830" type="line"/>
    </contour>
    <contour>
      <point x="134" y="774" type="line"/>
      <point x="78" y="718" type="line"/>
      <point x="21" y="774" type="line"/>
      <point x="78" y="830" type="line"/>
    </contour>
  </outline>
</glyph>
<glyph name="guillemotleft" format="1">
  <advance width="351"/>
  <unicode hex="00AB"/>
  <outline>
    <contour>
      <point x="156" y="153" type="line"/>
      <point x="34" y="370" type="line"/>
      <point x="154" y="578" type="line"/>
      <point x="209" y="540" type="line"/>
      <point x="104" y="365" type="line"/>
      <point x="209" y="189" type="line"/>
    </contour>
    <contour>
      <point x="278" y="153" type="line"/>
      <point x="156" y="370" type="line"/>
      <point x="276" y="578" type="line"/>
      <point x="331" y="540" type="line"/>
      <point x="226" y="365" type="line"/>
      <point x="331" y="189" type="line"/>
    </contour>
  </outline>
</glyph>
<glyph name="plusminus" format="1">
  <advance width="432"/>
  <unicode hex="00B1"/>
  <outline>
    <contour>
      <point x="248" y="490" type="line"/>
      <point x="248" y="347" type="line"/>
      <point x="367" y="347" type="line"/>
      <point x="367" y="277" type="line"/>
      <point x="248" y="277" type="line"/>
      <point x="248" y="138" type="line"/>
      <point x="178" y="138" type="line"/>
      <point x="178" y="277" type="line"/>
      <point x="64" y="277" type="line"/>
      <point x="64" y="347" type="line"/>
      <point x="178" y="347" type="line"/>
      <point x="178" y="490" type="line"/>
    </contour>
    <contour>
      <point x="63" y="70" type="line"/>
      <point x="367" y="70" type="line"/>
      <point x="367" y="0" type="line"/>
      <point x="63" y="0" type="line"/>
    </contour>
  </outline>
</glyph>
<glyph name="acute" format="1">
  <advance width="233"/>
  <unicode hex="00B4"/>
  <outline>
    <contour>
      <point x="69" y="701" type="line"/>
      <point x="31" y="743" type="line"/>
      <point x="115" y="830" type="line"/>
      <point x="168" y="773" type="line"/>
    </contour>
  </outline>
</glyph>
<glyph name="guillemotright" format="1">
  <advance width="354"/>
  <unicode hex="00BB"/>
  <outline>
    <contour>
      <point x="156" y="189" type="line"/>
      <point x="261" y="365" type="line"/>
      <point x="156" y="540" type="line"/>
      <point x="211" y="578" type="line"/>
      <point x="331" y="370" type="line"/>
      <point x="209" y="153" type="line"/>
    </contour>
    <contour>
      <point x="34" y="189" type="line"/>
      <point x="139" y="365" type="line"/>
      <point x="34" y="540" type="line"/>
      <point x="89" y="578" type="line"/>
      <point x="209" y="370" type="line"/>
      <point x="87" y="153" type="line"/>
    </contour>
  </outline>
</glyph>
<glyph name="AE" format="1">
  <advance width="478"/>
  <unicode hex="00C6"/>
  <outline>
    <contour>
      <point x="448" y="613" type="line"/>
      <point x="299" y="613" type="line"/>
      <point x="299" y="346" type="line"/>
      <point x="368" y="414" type="line"/>
      <point x="416" y="365" type="line"/>
      <point x="299" y="249" type="line"/>
      <point x="299" y="68" type="line"/>
      <point x="448" y="68" type="line"/>
      <point x="448" y="0" type="line"/>
      <point x="230" y="0" type="line"/>
      <point x="230" y="197" type="line"/>
      <point x="167" y="136" type="line"/>
      <point x="132" y="176" type="line"/>
      <point x="84" y="0" type="line"/>
      <point x="10" y="0" type="line"/>
      <point x="169" y="613" type="line"/>
      <point x="106" y="613" type="line"/>
      <point x="106" y="681" type="line"/>
      <point x="448" y="681" type="line"/>
    </contour>
    <contour>
      <point x="170" y="225" type="line"/>
      <point x="230" y="289" type="line"/>
      <point x="230" y="590" type="line"/>
      <point x="145" y="259" type="line"/>
    </contour>
  </outline>
</glyph>
<glyph name="Ccedilla" format="1">
  <advance width="320"/>
  <unicode hex="00C7"/>
  <outline>
    <contour>
      <point x="226" y="-73" type="line"/>
      <point x="173" y="-25" type="line"/>
      <point x="84" y="-130" type="line"/>
      <point x="121" y="-162" type="line"/>
    </contour>
    <contour>
      <point x="284" y="97" type="line"/>
      <point x="185" y="0" type="line"/>
      <point x="150" y="0" type="line"/>
      <point x="46" y="103" type="line"/>
      <point x="46" y="592" type="line" smooth="yes"/>
      <point x="46" y="613"/>
      <point x="49" y="647"/>
      <point x="55.0" y="658.0" type="qcurve" smooth="yes" name="inserted"/>
      <point x="61" y="669"/>
      <point x="88" y="681"/>
      <point x="112" y="681" type="qcurve" smooth="yes"/>
      <point x="269" y="681" type="line"/>
      <point x="269" y="538" type="line"/>
      <point x="202" y="538" type="line"/>
      <point x="202" y="613" type="line"/>
      <point x="120" y="613" type="line"/>
      <point x="120" y="129" type="line"/>
      <point x="168" y="77" type="line"/>
      <point x="236" y="145" type="line"/>
    </contour>
  </outline>
</glyph>
<glyph name="Igrave" format="1">
  <advance width="203"/>
  <unicode hex="00CC"/>
  <outline>
    <contour>
      <point x="135" y="681" type="line"/>
      <point x="135" y="0" type="line"/>
      <point x="64" y="0" type="line"/>
      <point x="64" y="681" type="line"/>
    </contour>
    <contour>
      <point x="88" y="701" type="line"/>
      <point x="50" y="743" type="line"/>
      <point x="134" y="830" type="line"/>
      <point x="187" y="773" type="line"/>
    </contour>
  </outline>
</glyph>
<glyph name="Ntilde" format="1">
  <advance width="315"/>
  <unicode hex="00D1"/>
  <outline>
    <contour>
      <point x="108" y="575" type="line"/>
      <point x="108" y="0" type="line"/>
      <point x="36" y="0" type="line"/>
      <point x="36" y="681" type="line"/>
      <point x="108" y="681" type="line"/>
      <point x="206" y="573" type="line"/>
      <point x="206" y="681" type="line"/>
      <point x="278" y="681" type="line"/>
      <point x="278" y="0" type="line"/>
      <point x="206" y="0" type="line"/>
      <point x="206" y="470" type="line"/>
    </contour>
    <contour>
      <point x="276" y="781" type="line"/>
      <point x="263" y="768"/>
      <point x="254" y="759"/>
      <point x="246" y="754" type="qcurve"/>
      <point x="234.5" y="745.0" name="inserted"/>
      <point x="210.5" y="736.0"/>
      <point x="198" y="736" type="qcurve" smooth="yes"/>
      <point x="188.5" y="736.0" name="inserted"/>
      <point x="166.0" y="744.0"/>
      <point x="153" y="752" type="qcurve" smooth="yes"/>
      <point x="140" y="760"/>
      <point x="127" y="765"/>
      <point x="119" y="765" type="qcurve" smooth="yes"/>
      <point x="110.5" y="765.0" name="inserted"/>
      <point x="87.5" y="750.0"/>
      <point x="73" y="735" type="qcurve"/>
      <point x="41" y="781" type="line"/>
      <point x="64" y="809"/>
      <point x="97" y="830"/>
      <point x="114" y="830" type="qcurve" smooth="yes"/>
      <point x="122" y="830"/>
      <point x="137" y="826"/>
      <point x="149" y="820" type="qcurve"/>
      <point x="173" y="806"/>
      <point x="190" y="800"/>
      <point x="199" y="800" type="qcurve" smooth="yes"/>
      <point x="210" y="800"/>
      <point x="230" y="812"/>
      <point x="244" y="828" type="qcurve"/>
    </contour>
  </outline>
</glyph>
<glyph name="multiply" format="1">
  <advance width="407"/>
  <unicode hex="00D7"/>
  <outline>
    <contour>
      <point x="352" y="415" type="line"/>
      <point x="251" y="314" type="line"/>
      <point x="350" y="214" type="line"/>
      <point x="301" y="165" type="line"/>
      <point x="201" y="264" type="line"/>
      <point x="103" y="166" type="line"/>
      <point x="53" y="216" type="line"/>
      <point x="152" y="314" type="line"/>
      <point x="52" y="414" type="line"/>
      <point x="101" y="463" type="line"/>
      <point x="201" y="363" type="line"/>
      <point x="302" y="464" type="line"/>
    </contour>
  </outline>
</glyph>
<glyph name="Oslash" format="1">
  <advance width="321"/>
  <unicode hex="00D8"/>
  <outline>
    <contour>
      <point x="44" y="119" type="line"/>
      <point x="44" y="556" type="line"/>
      <point x="102" y="613" type="line"/>
      <point x="43" y="613" type="line"/>
      <point x="43" y="645" type="line"/>
      <point x="43" y="679" type="line"/>
      <point x="43" y="679"/>
      <point x="63" y="680"/>
      <point x="79.5" y="680.0" type="qcurve" smooth="yes" name="inserted"/>
      <point x="96" y="680"/>
      <point x="139" y="680"/>
      <point x="161" y="680" type="qcurve" smooth="yes"/>
      <point x="187.0" y="680.0" name="inserted"/>
      <point x="246.0" y="679.5"/>
      <point x="279" y="679" type="qcurve"/>
      <point x="279" y="613" type="line"/>
      <point x="216" y="613" type="line"/>
      <point x="273" y="560" type="line"/>
      <point x="301" y="612" type="line"/>
      <point x="325" y="596" type="line"/>
      <point x="278" y="507" type="line"/>
      <point x="279" y="126" type="line" smooth="yes"/>
      <point x="279" y="54"/>
      <point x="217" y="-7"/>
      <point x="163" y="-7" type="qcurve" smooth="yes"/>
      <point x="127" y="-7"/>
      <point x="64" y="30"/>
      <point x="51" y="74" type="qcurve"/>
      <point x="15" y="6" type="line"/>
      <point x="-7" y="21" type="line"/>
    </contour>
    <contour>
      <point x="201" y="361" type="line"/>
      <point x="118" y="203" type="line"/>
      <point x="119" y="126" type="line" smooth="yes"/>
      <point x="119" y="91"/>
      <point x="142" y="61"/>
      <point x="163" y="61" type="qcurve" smooth="yes"/>
      <point x="184" y="61"/>
      <point x="202" y="91"/>
      <point x="202" y="126" type="qcurve" smooth="yes"/>
    </contour>
    <contour>
      <point x="118" y="262" type="line"/>
      <point x="201" y="421" type="line"/>
      <point x="201" y="527" type="line"/>
      <point x="160" y="567" type="line"/>
      <point x="154.0" y="561.5" name="inserted"/>
      <point x="143.5" y="551.5"/>
      <point x="139" y="547" type="qcurve" smooth="yes"/>
      <point x="125" y="533" type="line" smooth="yes"/>
      <point x="123.0" y="531.0" name="inserted"/>
      <point x="119.5" y="528.0"/>
      <point x="118" y="527" type="qcurve"/>
    </contour>
  </outline>
</glyph>
<glyph name="ae" format="1">
  <advance width="468"/>
  <unicode hex="00E6"/>
  <outline>
    <contour>
      <point x="438" y="613" type="line"/>
      <point x="289" y="613" type="line"/>
      <point x="289" y="278" type="line"/>
      <point x="358" y="346" type="line"/>
      <point x="406" y="297" type="line"/>
      <point x="289" y="181" type="line"/>
      <point x="289" y="68" type="line"/>
      <point x="438" y="68" type="line"/>
      <point x="438" y="0" type="line"/>
      <point x="219" y="0" type="line"/>
      <point x="219" y="117" type="line"/>
      <point x="118" y="0" type="line"/>
      <point x="50" y="0" type="line"/>
      <point x="50" y="580" type="line" smooth="yes"/>
      <point x="50" y="601"/>
      <point x="52" y="638"/>
      <point x="59.0" y="651.5" type="qcurve" smooth="yes" name="inserted"/>
      <point x="66" y="665"/>
      <point x="96" y="681"/>
      <point x="124" y="681" type="qcurve" smooth="yes"/>
      <point x="438" y="681" type="line"/>
    </contour>
    <contour>
      <point x="219" y="613" type="line"/>
      <point x="118" y="613" type="line"/>
      <point x="118" y="96" type="line"/>
      <point x="219" y="216" type="line"/>
    </contour>
  </outline>
</glyph>
<glyph name="ccedilla" format="1">
  <advance width="302"/>
  <unicode hex="00E7"/>
  <outline>
    <contour>
      <point x="213" y="-73" type="line"/>
      <point x="160" y="-25" type="line"/>
      <point x="71" y="-130" type="line"/>
      <point x="108" y="-162" type="line"/>
    </contour>
    <contour>
      <point x="282" y="97" type="line"/>
      <point x="183" y="0" type="line"/>
      <point x="148" y="0" type="line"/>
      <point x="44" y="103" type="line"/>
      <point x="44" y="592" type="line" smooth="yes"/>
      <point x="44" y="613"/>
      <point x="47" y="647"/>
      <point x="53.0" y="658.0" type="qcurve" smooth="yes" name="inserted"/>
      <point x="59" y="669"/>
      <point x="86" y="681"/>
      <point x="110" y="681" type="qcurve" smooth="yes"/>
      <point x="267" y="681" type="line"/>
      <point x="267" y="538" type="line"/>
      <point x="200" y="538" type="line"/>
      <point x="200" y="613" type="line"/>
      <point x="118" y="613" type="line"/>
      <point x="118" y="129" type="line"/>
      <point x="166" y="77" type="line"/>
      <point x="234" y="145" type="line"/>
    </contour>
  </outline>
</glyph>
<glyph name="egrave" format="1">
  <advance width="266"/>
  <unicode hex="00E8"/>
  <outline>
    <contour>
      <point x="245" y="681" type="line"/>
      <point x="27" y="681" type="line"/>
      <point x="27" y="0" type="line"/>
      <point x="245" y="0" type="line"/>
      <point x="245" y="68" type="line"/>
      <point x="96" y="68" type="line"/>
      <point x="96" y="123" type="line"/>
      <point x="213" y="239" type="line"/>
      <point x="165" y="288" type="line"/>
      <point x="96" y="220" type="line"/>
      <point x="96" y="613" type="line"/>
      <point x="245" y="613" type="line"/>
    </contour>
    <contour>
      <point x="33" y="773" type="line"/>
      <point x="86" y="830" type="line"/>
      <point x="170" y="743" type="line"/>
      <point x="132" y="701" type="line"/>
    </contour>
  </outline>
</glyph>
<glyph name="eacute" format="1">
  <advance width="266"/>
  <unicode hex="00E9"/>
  <outline>
    <contour>
      <point x="245" y="613" type="line"/>
      <point x="96" y="613" type="line"/>
      <point x="96" y="220" type="line"/>
      <point x="165" y="288" type="line"/>
      <point x="213" y="239" type="line"/>
      <point x="96" y="123" type="line"/>
      <point x="96" y="68" type="line"/>
      <point x="245" y="68" type="line"/>
      <point x="245" y="0" type="line"/>
      <point x="27" y="0" type="line"/>
      <point x="27" y="681" type="line"/>
      <point x="245" y="681" type="line"/>
    </contour>
    <contour>
      <point x="118" y="701" type="line"/>
      <point x="80" y="743" type="line"/>
      <point x="164" y="830" type="line"/>
      <point x="217" y="773" type="line"/>
    </contour>
  </outline>
</glyph>
<glyph name="ecircumflex" format="1">
  <advance width="266"/>
  <unicode hex="00EA"/>
  <outline>
    <contour>
      <point x="245" y="681" type="line"/>
      <point x="27" y="681" type="line"/>
      <point x="27" y="0" type="line"/>
      <point x="245" y="0" type="line"/>
      <point x="245" y="68" type="line"/>
      <point x="96" y="68" type="line"/>
      <point x="96" y="123" type="line"/>
      <point x="213" y="239" type="line"/>
      <point x="165" y="288" type="line"/>
      <point x="96" y="220" type="line"/>
      <point x="96" y="613" type="line"/>
      <point x="245" y="613" type="line"/>
    </contour>
    <contour>
      <point x="224" y="747" type="line"/>
      <point x="182" y="701" type="line"/>
      <point x="133" y="752" type="line"/>
      <point x="79" y="701" type="line"/>
      <point x="40" y="745" type="line"/>
      <point x="133" y="833" type="line"/>
    </contour>
  </outline>
</glyph>
<glyph name="edieresis" format="1">
  <advance width="266"/>
  <unicode hex="00EB"/>
  <outline>
    <contour>
      <point x="245" y="681" type="line"/>
      <point x="27" y="681" type="line"/>
      <point x="27" y="0" type="line"/>
      <point x="245" y="0" type="line"/>
      <point x="245" y="68" type="line"/>
      <point x="96" y="68" type="line"/>
      <point x="96" y="123" type="line"/>
      <point x="213" y="239" type="line"/>
      <point x="165" y="288" type="line"/>
      <point x="96" y="220" type="line"/>
      <point x="96" y="613" type="line"/>
      <point x="245" y="613" type="line"/>
    </contour>
    <contour>
      <point x="255" y="774" type="line"/>
      <point x="199" y="718" type="line"/>
      <point x="142" y="774" type="line"/>
      <point x="199" y="830" type="line"/>
    </contour>
    <contour>
      <point x="129" y="774" type="line"/>
      <point x="73" y="718" type="line"/>
      <point x="16" y="774" type="line"/>
      <point x="73" y="830" type="line"/>
    </contour>
  </outline>
</glyph>
<glyph name="igrave" format="1">
  <advance width="183"/>
  <unicode hex="00EC"/>
  <outline>
    <contour>
      <point x="126" y="681" type="line"/>
      <point x="126" y="0" type="line"/>
      <point x="55" y="0" type="line"/>
      <point x="55" y="681" type="line"/>
    </contour>
    <contour>
      <point x="-2" y="773" type="line"/>
      <point x="51" y="830" type="line"/>
      <point x="135" y="743" type="line"/>
      <point x="97" y="701" type="line"/>
    </contour>
  </outline>
</glyph>
<glyph name="icircumflex" format="1">
  <advance width="203"/>
  <unicode hex="00EE"/>
  <outline>
    <contour>
      <point x="135" y="681" type="line"/>
      <point x="135" y="0" type="line"/>
      <point x="64" y="0" type="line"/>
      <point x="64" y="681" type="line"/>
    </contour>
    <contour>
      <point x="192" y="747" type="line"/>
      <point x="150" y="701" type="line"/>
      <point x="101" y="752" type="line"/>
      <point x="47" y="701" type="line"/>
      <point x="8" y="745" type="line"/>
      <point x="101" y="833" type="line"/>
    </contour>
  </outline>
</glyph>
<glyph name="idieresis" format="1">
  <advance width="203"/>
  <unicode hex="00EF"/>
  <outline>
    <contour>
      <point x="135" y="681" type="line"/>
      <point x="135" y="0" type="line"/>
      <point x="64" y="0" type="line"/>
      <point x="64" y="681" type="line"/>
    </contour>
    <contour>
      <point x="220" y="774" type="line"/>
      <point x="164" y="718" type="line"/>
      <point x="107" y="774" type="line"/>
      <point x="164" y="830" type="line"/>
    </contour>
    <contour>
      <point x="94" y="774" type="line"/>
      <point x="38" y="718" type="line"/>
      <point x="-19" y="774" type="line"/>
      <point x="38" y="830" type="line"/>
    </contour>
  </outline>
</glyph>
<glyph name="divide" format="1">
  <advance width="417"/>
  <unicode hex="00F7"/>
  <outline>
    <contour>
      <point x="210" y="220" type="line"/>
      <point x="267" y="164" type="line"/>
      <point x="210" y="108" type="line"/>
      <point x="154" y="164" type="line"/>
    </contour>
    <contour>
      <point x="210" y="524" type="line"/>
      <point x="267" y="468" type="line"/>
      <point x="210" y="412" type="line"/>
      <point x="154" y="468" type="line"/>
    </contour>
    <contour>
      <point x="37" y="347" type="line"/>
      <point x="389" y="347" type="line"/>
      <point x="389" y="277" type="line"/>
      <point x="37" y="277" type="line"/>
    </contour>
  </outline>
</glyph>
<glyph name="oslash" format="1">
  <advance width="349"/>
  <unicode hex="00F8"/>
  <outline>
    <contour>
      <point x="55" y="119" type="line"/>
      <point x="55" y="556" type="line"/>
      <point x="113" y="613" type="line"/>
      <point x="54" y="613" type="line"/>
      <point x="54" y="645" type="line"/>
      <point x="54" y="679" type="line"/>
      <point x="54" y="679"/>
      <point x="74" y="680"/>
      <point x="90.5" y="680.0" type="qcurve" smooth="yes" name="inserted"/>
      <point x="107" y="680"/>
      <point x="150" y="680"/>
      <point x="172" y="680" type="qcurve" smooth="yes"/>
      <point x="198.0" y="680.0" name="inserted"/>
      <point x="257.0" y="679.5"/>
      <point x="290" y="679" type="qcurve"/>
      <point x="290" y="613" type="line"/>
      <point x="227" y="613" type="line"/>
      <point x="284" y="560" type="line"/>
      <point x="312" y="612" type="line"/>
      <point x="336" y="596" type="line"/>
      <point x="289" y="507" type="line"/>
      <point x="290" y="126" type="line" smooth="yes"/>
      <point x="290" y="54"/>
      <point x="228" y="-7"/>
      <point x="174" y="-7" type="qcurve" smooth="yes"/>
      <point x="138" y="-7"/>
      <point x="75" y="30"/>
      <point x="62" y="74" type="qcurve"/>
      <point x="26" y="6" type="line"/>
      <point x="4" y="21" type="line"/>
    </contour>
    <contour>
      <point x="212" y="361" type="line"/>
      <point x="129" y="203" type="line"/>
      <point x="130" y="126" type="line" smooth="yes"/>
      <point x="130" y="91"/>
      <point x="153" y="61"/>
      <point x="174" y="61" type="qcurve" smooth="yes"/>
      <point x="195" y="61"/>
      <point x="213" y="91"/>
      <point x="213" y="126" type="qcurve" smooth="yes"/>
    </contour>
    <contour>
      <point x="129" y="262" type="line"/>
      <point x="212" y="421" type="line"/>
      <point x="212" y="527" type="line"/>
      <point x="171" y="567" type="line"/>
      <point x="165.0" y="561.5" name="inserted"/>
      <point x="154.5" y="551.5"/>
      <point x="150" y="547" type="qcurve" smooth="yes"/>
      <point x="136" y="533" type="line" smooth="yes"/>
      <point x="134.0" y="531.0" name="inserted"/>
      <point x="130.5" y="528.0"/>
      <point x="129" y="527" type="qcurve"/>
    </contour>
  </outline>
</glyph>
<glyph name="uacute" format="1">
  <advance width="336"/>
  <unicode hex="00FA"/>
  <outline>
    <contour>
      <point x="222" y="216" type="line"/>
      <point x="222" y="681" type="line"/>
      <point x="292" y="681" type="line"/>
      <point x="292" y="0" type="line"/>
      <point x="222" y="0" type="line"/>
      <point x="222" y="117" type="line"/>
      <point x="121" y="0" type="line"/>
      <point x="51" y="0" type="line"/>
      <point x="51" y="681" type="line"/>
      <point x="121" y="681" type="line"/>
      <point x="121" y="96" type="line"/>
    </contour>
    <contour>
      <point x="151" y="701" type="line"/>
      <point x="113" y="743" type="line"/>
      <point x="197" y="830" type="line"/>
      <point x="250" y="773" type="line"/>
    </contour>
  </outline>
</glyph>
<glyph name="ucircumflex" format="1">
  <advance width="328"/>
  <unicode hex="00FB"/>
  <outline>
    <contour>
      <point x="222" y="216" type="line"/>
      <point x="222" y="681" type="line"/>
      <point x="292" y="681" type="line"/>
      <point x="292" y="0" type="line"/>
      <point x="222" y="0" type="line"/>
      <point x="222" y="117" type="line"/>
      <point x="121" y="0" type="line"/>
      <point x="51" y="0" type="line"/>
      <point x="51" y="681" type="line"/>
      <point x="121" y="681" type="line"/>
      <point x="121" y="96" type="line"/>
    </contour>
    <contour>
      <point x="262" y="747" type="line"/>
      <point x="220" y="701" type="line"/>
      <point x="171" y="752" type="line"/>
      <point x="117" y="701" type="line"/>
      <point x="78" y="745" type="line"/>
      <point x="171" y="833" type="line"/>
    </contour>
  </outline>
</glyph>
<glyph name="udieresis" format="1">
  <advance width="328"/>
  <unicode hex="00FC"/>
  <outline>
    <contour>
      <point x="222" y="216" type="line"/>
      <point x="222" y="681" type="line"/>
      <point x="292" y="681" type="line"/>
      <point x="292" y="0" type="line"/>
      <point x="222" y="0" type="line"/>
      <point x="222" y="117" type="line"/>
      <point x="121" y="0" type="line"/>
      <point x="51" y="0" type="line"/>
      <point x="51" y="681" type="line"/>
      <point x="121" y="681" type="line"/>
      <point x="121" y="96" type="line"/>
    </contour>
    <contour>
      <point x="290" y="774" type="line"/>
      <point x="234" y="718" type="line"/>
      <point x="177" y="774" type="line"/>
      <point x="234" y="830" type="line"/>
    </contour>
    <contour>
      <point x="164" y="774" type="line"/>
      <point x="108" y="718" type="line"/>
      <point x="51" y="774" type="line"/>
      <point x="108" y="830" type="line"/>
    </contour>
  </outline>
</glyph>
<glyph name="yacute" format="1">
  <advance width="327"/>
  <unicode hex="00FD"/>
  <outline>
    <contour>
      <point x="119" y="681" type="line"/>
      <point x="121" y="196" type="line"/>
      <point x="164" y="152" type="line"/>
      <point x="206" y="196" type="line"/>
      <point x="204" y="681" type="line"/>
      <point x="280" y="681" type="line"/>
      <point x="282" y="170" type="line"/>
      <point x="207" y="96" type="line"/>
      <point x="205" y="0" type="line"/>
      <point x="119" y="0" type="line"/>
      <point x="121" y="96" type="line"/>
      <point x="47" y="170" type="line"/>
      <point x="45" y="681" type="line"/>
    </contour>
    <contour>
      <point x="148" y="701" type="line"/>
      <point x="110" y="743" type="line"/>
      <point x="194" y="830" type="line"/>
      <point x="247" y="773" type="line"/>
    </contour>
  </outline>
</glyph>
<glyph name="ydieresis" format="1">
  <advance width="327"/>
  <unicode hex="00FF"/>
  <outline>
    <contour>
      <point x="45" y="681" type="line"/>
      <point x="47" y="170" type="line"/>
      <point x="121" y="96" type="line"/>
      <point x="119" y="0" type="line"/>
      <point x="205" y="0" type="line"/>
      <point x="207" y="96" type="line"/>
      <point x="282" y="170" type="line"/>
      <point x="280" y="681" type="line"/>
      <point x="204" y="681" type="line"/>
      <point x="206" y="196" type="line"/>
      <point x="164" y="152" type="line"/>
      <point x="121" y="196" type="line"/>
      <point x="119" y="681" type="line"/>
    </contour>
    <contour>
      <point x="283" y="774" type="line"/>
      <point x="227" y="718" type="line"/>
      <point x="170" y="774" type="line"/>
      <point x="227" y="830" type="line"/>
    </contour>
    <contour>
      <point x="157" y="774" type="line"/>
      <point x="101" y="718" type="line"/>
      <point x="44" y="774" type="line"/>
      <point x="101" y="830" type="line"/>
    </contour>
  </outline>
</glyph>
<glyph name="Lslash" format="1">
  <advance width="266"/>
  <unicode hex="0141"/>
  <outline>
    <contour>
      <point x="132" y="277" type="line"/>
      <point x="132" y="68" type="line"/>
      <point x="264" y="68" type="line"/>
      <point x="264" y="0" type="line"/>
      <point x="62" y="0" type="line"/>
      <point x="62" y="277" type="line"/>
      <point x="40" y="277" type="line"/>
      <point x="40" y="343" type="line"/>
      <point x="62" y="343" type="line"/>
      <point x="62" y="681" type="line"/>
      <point x="132" y="681" type="line"/>
      <point x="132" y="343" type="line"/>
      <point x="216" y="343" type="line"/>
      <point x="216" y="277" type="line"/>
    </contour>
  </outline>
</glyph>
<glyph name="OE" format="1">
  <advance width="455"/>
  <unicode hex="0152"/>
  <outline>
    <contour>
      <point x="429" y="613" type="line"/>
      <point x="280" y="613" type="line"/>
      <point x="280" y="346" type="line"/>
      <point x="349" y="414" type="line"/>
      <point x="397" y="365" type="line"/>
      <point x="280" y="249" type="line"/>
      <point x="280" y="69" type="line"/>
      <point x="429" y="69" type="line"/>
      <point x="429" y="0" type="line"/>
      <point x="217" y="0" type="line"/>
      <point x="207" y="-3"/>
      <point x="184" y="-7"/>
      <point x="171" y="-7" type="qcurve" smooth="yes"/>
      <point x="148" y="-7"/>
      <point x="106" y="8"/>
      <point x="89.0" y="23.5" type="qcurve" smooth="yes" name="inserted"/>
      <point x="72" y="39"/>
      <point x="52" y="90"/>
      <point x="52" y="126" type="qcurve" smooth="yes"/>
      <point x="52" y="559" type="line"/>
      <point x="110" y="613" type="line"/>
      <point x="51" y="613" type="line"/>
      <point x="51" y="646" type="line"/>
      <point x="51" y="681" type="line"/>
      <point x="429" y="681" type="line"/>
    </contour>
    <contour>
      <point x="127" y="126" type="line" smooth="yes"/>
      <point x="127" y="91"/>
      <point x="150" y="61"/>
      <point x="171" y="61" type="qcurve" smooth="yes"/>
      <point x="187.5" y="61.0" name="inserted"/>
      <point x="207.0" y="82.5"/>
      <point x="210" y="104" type="qcurve"/>
      <point x="211" y="613" type="line" smooth="yes"/>
      <point x="211" y="614"/>
      <point x="185" y="587"/>
      <point x="169.0" y="571.0" type="qcurve" smooth="yes" name="inserted"/>
      <point x="153" y="555"/>
      <point x="126" y="527"/>
      <point x="126" y="527" type="qcurve"/>
    </contour>
  </outline>
</glyph>
<glyph name="florin" format="1">
  <advance width="283"/>
  <unicode hex="0192"/>
  <outline>
    <contour>
      <point x="119" y="214" type="line"/>
      <point x="188" y="282" type="line"/>
      <point x="236" y="233" type="line"/>
      <point x="119" y="117" type="line"/>
      <point x="119" y="0" type="line"/>
      <point x="50" y="0" type="line"/>
      <point x="50" y="681" type="line"/>
      <point x="268" y="681" type="line"/>
      <point x="268" y="613" type="line"/>
      <point x="119" y="613" type="line"/>
    </contour>
  </outline>
</glyph>
<glyph name="circumflex" format="1">
  <advance width="342"/>
  <unicode hex="02C6"/>
  <outline>
    <contour>
      <point x="265" y="747" type="line"/>
      <point x="223" y="701" type="line"/>
      <point x="174" y="752" type="line"/>
      <point x="120" y="701" type="line"/>
      <point x="81" y="745" type="line"/>
      <point x="174" y="833" type="line"/>
    </contour>
  </outline>
</glyph>
<glyph name="endash" format="1">
  <advance width="421"/>
  <unicode hex="2013"/>
  <outline>
    <contour>
      <point x="34" y="346" type="line"/>
      <point x="386" y="346" type="line"/>
      <point x="386" y="276" type="line"/>
      <point x="34" y="276" type="line"/>
    </contour>
  </outline>
</glyph>
<glyph name="emdash" format="1">
  <advance width="550"/>
  <unicode hex="2014"/>
  <outline>
    <contour>
      <point x="34" y="346" type="line"/>
      <point x="515" y="346" type="line"/>
      <point x="515" y="276" type="line"/>
      <point x="34" y="276" type="line"/>
    </contour>
  </outline>
</glyph>
<glyph name="quoteleft" format="1">
  <advance width="166"/>
  <unicode hex="2018"/>
  <outline>
    <contour>
      <point x="90" y="763" type="line"/>
      <point x="144" y="748" type="line"/>
      <point x="90" y="524" type="line"/>
      <point x="17" y="548" type="line"/>
    </contour>
  </outline>
</glyph>
<glyph name="quoteright" format="1">
  <advance width="157"/>
  <unicode hex="2019"/>
  <outline>
    <contour>
      <point x="71" y="524" type="line"/>
      <point x="17" y="539" type="line"/>
      <point x="71" y="763" type="line"/>
      <point x="144" y="739" type="line"/>
    </contour>
  </outline>
</glyph>
<glyph name="quotesinglbase" format="1">
  <advance width="192"/>
  <unicode hex="201A"/>
  <outline>
    <contour>
      <point x="76" y="-141" type="line"/>
      <point x="22" y="-126" type="line"/>
      <point x="76" y="98" type="line"/>
      <point x="149" y="74" type="line"/>
    </contour>
  </outline>
</glyph>
<glyph name="quotedblleft" format="1">
  <advance width="271"/>
  <unicode hex="201C"/>
  <outline>
    <contour>
      <point x="90" y="763" type="line"/>
      <point x="144" y="748" type="line"/>
      <point x="90" y="524" type="line"/>
      <point x="17" y="548" type="line"/>
    </contour>
    <contour>
      <point x="199" y="763" type="line"/>
      <point x="253" y="748" type="line"/>
      <point x="199" y="524" type="line"/>
      <point x="126" y="548" type="line"/>
    </contour>
  </outline>
</glyph>
<glyph name="quotedblright" format="1">
  <advance width="273"/>
  <unicode hex="201D"/>
  <outline>
    <contour>
      <point x="180" y="524" type="line"/>
      <point x="126" y="539" type="line"/>
      <point x="180" y="763" type="line"/>
      <point x="253" y="739" type="line"/>
    </contour>
    <contour>
      <point x="71" y="524" type="line"/>
      <point x="17" y="539" type="line"/>
      <point x="71" y="763" type="line"/>
      <point x="144" y="739" type="line"/>
    </contour>
  </outline>
</glyph>
<glyph name="quotedblbase" format="1">
  <advance width="274"/>
  <unicode hex="201E"/>
  <outline>
    <contour>
      <point x="70" y="-75" type="line"/>
      <point x="19" y="-57" type="line"/>
      <point x="80" y="131" type="line"/>
      <point x="150" y="109" type="line"/>
    </contour>
    <contour>
      <point x="165" y="-75" type="line"/>
      <point x="114" y="-57" type="line"/>
      <point x="175" y="131" type="line"/>
      <point x="245" y="109" type="line"/>
    </contour>
  </outline>
</glyph>
<glyph name="dagger" format="1">
  <advance width="341"/>
  <unicode hex="2020"/>
  <outline>
    <contour>
      <point x="208" y="544" type="line"/>
      <point x="208" y="-59" type="line"/>
      <point x="136" y="-59" type="line"/>
      <point x="136" y="544" type="line"/>
      <point x="25" y="544" type="line"/>
      <point x="25" y="614" type="line"/>
      <point x="136" y="614" type="line"/>
      <point x="136" y="786" type="line"/>
      <point x="208" y="786" type="line"/>
      <point x="208" y="614" type="line"/>
      <point x="315" y="614" type="line"/>
      <point x="315" y="544" type="line"/>
    </contour>
  </outline>
</glyph>
<glyph name="daggerdbl" format="1">
  <advance width="340"/>
  <unicode hex="2021"/>
  <outline>
    <contour>
      <point x="208" y="399" type="line"/>
      <point x="208" y="-59" type="line"/>
      <point x="136" y="-59" type="line"/>
      <point x="136" y="399" type="line"/>
      <point x="25" y="399" type="line"/>
      <point x="25" y="469" type="line"/>
      <point x="136" y="469" type="line"/>
      <point x="136" y="544" type="line"/>
      <point x="25" y="544" type="line"/>
      <point x="25" y="614" type="line"/>
      <point x="136" y="614" type="line"/>
      <point x="136" y="786" type="line"/>
      <point x="208" y="786" type="line"/>
      <point x="208" y="614" type="line"/>
      <point x="315" y="614" type="line"/>
      <point x="315" y="544" type="line"/>
      <point x="208" y="544" type="line"/>
      <point x="208" y="469" type="line"/>
      <point x="315" y="469" type="line"/>
      <point x="315" y="399" type="line"/>
    </contour>
  </outline>
</glyph>
<glyph name="bullet" format="1">
  <advance width="324"/>
  <unicode hex="2022"/>
  <outline>
    <contour>
      <point x="287" y="312" type="line"/>
      <point x="163" y="188" type="line"/>
      <point x="37" y="312" type="line"/>
      <point x="163" y="436" type="line"/>
    </contour>
  </outline>
</glyph>
<glyph name="ellipsis" format="1">
  <advance width="489"/>
  <unicode hex="2026"/>
  <outline>
    <contour>
      <point x="81" y="102" type="line"/>
      <point x="138" y="46" type="line"/>
      <point x="81" y="-10" type="line"/>
      <point x="25" y="46" type="line"/>
    </contour>
    <contour>
      <point x="244" y="102" type="line"/>
      <point x="301" y="46" type="line"/>
      <point x="244" y="-10" type="line"/>
      <point x="188" y="46" type="line"/>
    </contour>
    <contour>
      <point x="407" y="102" type="line"/>
      <point x="464" y="46" type="line"/>
      <point x="407" y="-10" type="line"/>
      <point x="351" y="46" type="line"/>
    </contour>
  </outline>
</glyph>
<glyph name="Euro" format="1">
  <advance width="319"/>
  <unicode hex="20AC"/>
  <outline>
    <contour>
      <point x="37" y="419" type="line"/>
      <point x="71" y="419" type="line"/>
      <point x="71" y="575" type="line" smooth="yes"/>
      <point x="72" y="632"/>
      <point x="134" y="690"/>
      <point x="189" y="690" type="qcurve" smooth="yes"/>
      <point x="210" y="690"/>
      <point x="249" y="675"/>
      <point x="264.0" y="661.0" type="qcurve" smooth="yes" name="inserted"/>
      <point x="279" y="647"/>
      <point x="297" y="604"/>
      <point x="297" y="576" type="qcurve" smooth="yes"/>
      <point x="297" y="487" type="line"/>
      <point x="224" y="487" type="line"/>
      <point x="224" y="570" type="line" smooth="yes"/>
      <point x="224" y="602"/>
      <point x="206" y="622"/>
      <point x="188" y="622" type="qcurve" smooth="yes"/>
      <point x="175" y="622"/>
      <point x="158" y="615"/>
      <point x="153.5" y="605.5" type="qcurve" smooth="yes" name="inserted"/>
      <point x="149" y="596"/>
      <point x="145" y="563"/>
      <point x="145" y="537" type="qcurve" smooth="yes"/>
      <point x="145" y="419" type="line"/>
      <point x="285" y="419" type="line"/>
      <point x="253" y="351" type="line"/>
      <point x="145" y="351" type="line"/>
      <point x="145" y="317" type="line"/>
      <point x="246" y="317" type="line"/>
      <point x="218" y="249" type="line"/>
      <point x="146" y="249" type="line"/>
      <point x="145" y="139" type="line"/>
      <point x="145" y="113"/>
      <point x="148" y="82"/>
      <point x="153.5" y="73.5" type="qcurve" smooth="yes" name="inserted"/>
      <point x="159" y="65"/>
      <point x="176" y="60"/>
      <point x="189" y="60" type="qcurve" smooth="yes"/>
      <point x="207" y="60"/>
      <point x="225" y="81"/>
      <point x="225" y="113" type="qcurve" smooth="yes"/>
      <point x="225" y="195" type="line"/>
      <point x="298" y="195" type="line"/>
      <point x="298" y="106" type="line" smooth="yes"/>
      <point x="298" y="78"/>
      <point x="280" y="35"/>
      <point x="265.0" y="21.0" type="qcurve" smooth="yes" name="inserted"/>
      <point x="250" y="7"/>
      <point x="211" y="-8"/>
      <point x="190" y="-8" type="qcurve" smooth="yes"/>
      <point x="135" y="-8"/>
      <point x="72" y="50"/>
      <point x="72" y="107" type="qcurve" smooth="yes"/>
      <point x="72" y="249" type="line"/>
      <point x="8" y="249" type="line"/>
      <point x="37" y="317" type="line"/>
      <point x="71" y="317" type="line"/>
      <point x="71" y="351" type="line"/>
      <point x="14" y="351" type="line"/>
    </contour>
  </outline>
</glyph>
<glyph name="minus" format="1">
  <advance width="375"/>
  <unicode hex="2212"/>
  <outline>
    <contour>
      <point x="33" y="346" type="line"/>
      <point x="337" y="346" type="line"/>
      <point x="337" y="276" type="line"/>
      <point x="33" y="276" type="line"/>
    </contour>
  </outline>
</glyph>
<glyph name="ff" format="1">
  <advance width="469"/>
  <unicode hex="FB00"/>
  <outline>
    <contour>
      <point x="329" y="457" type="line"/>
      <point x="378" y="504" type="line"/>
      <point x="416" y="457" type="line"/>
      <point x="328" y="372" type="line"/>
      <point x="327" y="0" type="line"/>
      <point x="258" y="0" type="line"/>
      <point x="258" y="303" type="line"/>
      <point x="120" y="167" type="line"/>
      <point x="119" y="0" type="line"/>
      <point x="50" y="0" type="line"/>
      <point x="50" y="681" type="line"/>
      <point x="496" y="681" type="line"/>
      <point x="496" y="613" type="line"/>
      <point x="330" y="613" type="line"/>
    </contour>
    <contour>
      <point x="121" y="252" type="line"/>
      <point x="258" y="388" type="line"/>
      <point x="258" y="613" type="line"/>
      <point x="122" y="613" type="line"/>
    </contour>
  </outline>
</glyph>
<glyph name="fi" format="1">
  <advance width="420"/>
  <unicode hex="FB01"/>
  <outline>
    <contour>
      <point x="119" y="346" type="line"/>
      <point x="188" y="414" type="line"/>
      <point x="236" y="365" type="line"/>
      <point x="119" y="249" type="line"/>
      <point x="119" y="0" type="line"/>
      <point x="50" y="0" type="line"/>
      <point x="50" y="681" type="line"/>
      <point x="305" y="681" type="line"/>
      <point x="325" y="701" type="line"/>
      <point x="382" y="645" type="line"/>
      <point x="325" y="589" type="line"/>
      <point x="301" y="613" type="line"/>
      <point x="119" y="613" type="line"/>
    </contour>
    <contour>
      <point x="359" y="550" type="line"/>
      <point x="359" y="0" type="line"/>
      <point x="288" y="0" type="line"/>
      <point x="288" y="550" type="line"/>
    </contour>
  </outline>
</glyph>
<glyph name="fl" format="1">
  <advance width="471"/>
  <unicode hex="FB02"/>
  <outline>
    <contour>
      <point x="119" y="214" type="line"/>
      <point x="188" y="282" type="line"/>
      <point x="236" y="233" type="line"/>
      <point x="119" y="117" type="line"/>
      <point x="119" y="0" type="line"/>
      <point x="50" y="0" type="line"/>
      <point x="50" y="681" type="line"/>
      <point x="337" y="681" type="line"/>
      <point x="337" y="68" type="line"/>
      <point x="469" y="68" type="line"/>
      <point x="469" y="0" type="line"/>
      <point x="267" y="0" type="line"/>
      <point x="267" y="613" type="line"/>
      <point x="119" y="613" type="line"/>
    </contour>
  </outline>
</glyph>
<glyph name="ffi" format="1">
  <advance width="609"/>
  <unicode hex="FB03"/>
  <outline>
    <contour>
      <point x="332" y="384" type="line"/>
      <point x="401" y="452" type="line"/>
      <point x="449" y="403" type="line"/>
      <point x="332" y="287" type="line"/>
      <point x="332" y="0" type="line"/>
      <point x="263" y="0" type="line"/>
      <point x="263" y="227" type="line"/>
      <point x="119" y="84" type="line"/>
      <point x="119" y="0" type="line"/>
      <point x="50" y="0" type="line"/>
      <point x="50" y="681" type="line"/>
      <point x="503" y="681" type="line"/>
      <point x="523" y="701" type="line"/>
      <point x="580" y="645" type="line"/>
      <point x="523" y="589" type="line"/>
      <point x="499" y="613" type="line"/>
      <point x="332" y="613" type="line"/>
    </contour>
    <contour>
      <point x="119" y="181" type="line"/>
      <point x="263" y="324" type="line"/>
      <point x="263" y="613" type="line"/>
      <point x="119" y="613" type="line"/>
    </contour>
    <contour>
      <point x="557" y="550" type="line"/>
      <point x="557" y="0" type="line"/>
      <point x="486" y="0" type="line"/>
      <point x="486" y="550" type="line"/>
    </contour>
  </outline>
</glyph>
<glyph name="N3" format="1">
  <advance width="335"/>
  <outline>
    <contour>
      <point x="122" y="509" type="line"/>
      <point x="122" y="0" type="line"/>
      <point x="50" y="0" type="line"/>
      <point x="50" y="696" type="line"/>
      <point x="50" y="696"/>
      <point x="55" y="691"/>
      <point x="70.5" y="674.5" type="qcurve" smooth="yes" name="inserted"/>
      <point x="86" y="658"/>
      <point x="152" y="587"/>
      <point x="213" y="522" type="qcurve"/>
      <point x="213" y="682" type="line"/>
      <point x="285" y="682" type="line"/>
      <point x="285" y="-2" type="line"/>
      <point x="213" y="-2" type="line"/>
      <point x="213" y="413" type="line"/>
    </contour>
  </outline>
</glyph>
<glyph name="Nbas" format="1">
  <advance width="335"/>
  <outline>
    <contour>
      <point x="122" y="94" type="line"/>
      <point x="122" y="0" type="line"/>
      <point x="50" y="0" type="line"/>
      <point x="50" y="681" type="line"/>
      <point x="122" y="681" type="line"/>
      <point x="122" y="188" type="line"/>
      <point x="213" y="88" type="line"/>
      <point x="213" y="682" type="line"/>
      <point x="285" y="682" type="line"/>
      <point x="285" y="-2" type="line"/>
      <point x="213" y="-2" type="line"/>
    </contour>
  </outline>
</glyph>
<glyph name="Th" format="1">
  <advance width="559"/>
  <outline>
    <contour>
      <point x="515" y="681" type="line"/>
      <point x="515" y="0" type="line"/>
      <point x="444" y="0" type="line"/>
      <point x="444" y="114" type="line"/>
      <point x="387" y="55" type="line"/>
      <point x="327" y="114" type="line"/>
      <point x="327" y="0" type="line"/>
      <point x="256" y="0" type="line"/>
      <point x="256" y="613" type="line"/>
      <point x="160" y="613" type="line"/>
      <point x="160" y="0" type="line"/>
      <point x="89" y="0" type="line"/>
      <point x="89" y="613" type="line"/>
      <point x="-17" y="613" type="line"/>
      <point x="-17" y="682" type="line"/>
      <point x="327" y="681" type="line"/>
      <point x="327" y="211" type="line"/>
      <point x="335" y="203"/>
      <point x="354" y="183"/>
      <point x="364" y="173" type="qcurve" smooth="yes"/>
      <point x="369.5" y="167.5" name="inserted"/>
      <point x="381.0" y="156.0"/>
      <point x="387" y="150" type="qcurve"/>
      <point x="444" y="212" type="line"/>
      <point x="444" y="681" type="line"/>
    </contour>
  </outline>
</glyph>
<glyph name="bulletbomb" format="1">
  <advance width="415"/>
  <outline>
    <contour>
      <point x="206" y="527" type="qcurve" smooth="yes"/>
      <point x="246" y="527"/>
      <point x="318" y="496"/>
      <point x="344.0" y="469.5" type="qcurve" smooth="yes" name="inserted"/>
      <point x="370" y="443"/>
      <point x="401" y="371"/>
      <point x="401" y="331" type="qcurve" smooth="yes"/>
      <point x="401" y="291"/>
      <point x="370" y="220"/>
      <point x="344.0" y="193.5" type="qcurve" smooth="yes" name="inserted"/>
      <point x="318" y="167"/>
      <point x="246" y="136"/>
      <point x="206" y="136" type="qcurve" smooth="yes"/>
      <point x="165" y="136"/>
      <point x="94" y="167"/>
      <point x="68.0" y="193.5" type="qcurve" smooth="yes" name="inserted"/>
      <point x="42" y="220"/>
      <point x="11" y="291"/>
      <point x="11" y="331" type="qcurve" smooth="yes"/>
      <point x="11" y="371"/>
      <point x="42" y="443"/>
      <point x="68.0" y="469.5" type="qcurve" smooth="yes" name="inserted"/>
      <point x="94" y="496"/>
      <point x="165" y="527"/>
    </contour>
    <contour>
      <point x="372" y="336" type="qcurve" smooth="yes"/>
      <point x="380" y="338"/>
      <point x="383" y="352"/>
      <point x="382" y="358" type="qcurve" smooth="yes"/>
      <point x="378" y="386"/>
      <point x="355" y="431"/>
      <point x="341.5" y="446.0" type="qcurve" smooth="yes" name="inserted"/>
      <point x="328" y="461"/>
      <point x="304" y="477"/>
      <point x="298" y="477" type="qcurve"/>
      <point x="288" y="476"/>
      <point x="281" y="464"/>
      <point x="281" y="459" type="qcurve" smooth="yes"/>
      <point x="281" y="454"/>
      <point x="290" y="446"/>
      <point x="292" y="444" type="qcurve"/>
      <point x="316.0" y="428.0" name="inserted"/>
      <point x="344.5" y="381.0"/>
      <point x="349" y="350" type="qcurve"/>
      <point x="351" y="340"/>
      <point x="364" y="334"/>
    </contour>
  </outline>
</glyph>
<glyph name="quotedblleft.001" format="1">
  <advance width="464"/>
  <outline>
    <contour>
      <point x="117" y="576" type="line"/>
      <point x="117" y="-2" type="line"/>
      <point x="50" y="-2" type="line"/>
      <point x="50" y="681" type="line"/>
      <point x="117" y="681" type="line"/>
      <point x="229" y="553" type="line"/>
      <point x="229" y="554" type="line"/>
      <point x="348" y="681" type="line"/>
      <point x="414" y="681" type="line"/>
      <point x="414" y="-2" type="line"/>
      <point x="348" y="-2" type="line"/>
      <point x="348" y="576" type="line"/>
      <point x="229" y="449" type="line"/>
    </contour>
  </outline>
</glyph>
